<svg xmlns="http://www.w3.org/2000/svg" xmlns:xlink="http://www.w3.org/1999/xlink" width="500" zoomAndPan="magnify" viewBox="0 0 375 374.999991" height="500" preserveAspectRatio="xMidYMid meet" version="1.0"><defs><g/><clipPath id="id1"><path d="M 99.65625 81.082031 L 279.191406 81.082031 L 279.191406 232.945312 L 99.65625 232.945312 Z M 99.65625 81.082031 " clip-rule="nonzero"/></clipPath><clipPath id="id2"><path d="M 117.730469 201.738281 L 262.300781 201.738281 L 262.300781 242.902344 L 117.730469 242.902344 Z M 117.730469 201.738281 " clip-rule="nonzero"/></clipPath></defs><g clip-path="url(#id1)"><path fill="#d37c4b" d="M 279.144531 160.367188 C 280.722656 118.480469 241.832031 83.015625 192.28125 81.15625 C 142.730469 79.296875 101.28125 111.75 99.703125 153.636719 C 98.125 195.523438 137.015625 230.984375 186.566406 232.84375 C 236.117188 234.703125 277.566406 202.253906 279.144531 160.367188 " fill-opacity="1" fill-rule="nonzero"/></g><path fill="#ac7423" d="M 262.769531 186.941406 C 257.039062 189.292969 256.75 198.351562 261.601562 202.898438 C 264.742188 199.34375 267.523438 195.546875 269.890625 191.53125 C 268.476562 188.519531 265.914062 185.894531 262.769531 186.941406 " fill-opacity="1" fill-rule="nonzero"/><path fill="#ac7423" d="M 119.699219 188.003906 C 118.992188 185.167969 115.085938 185.878906 112.957031 187.292969 C 111.890625 188.359375 110.558594 189.597656 109.671875 191.015625 C 111.742188 194.414062 114.101562 197.671875 116.726562 200.761719 C 119.445312 197 121.257812 193.003906 119.699219 188.003906 " fill-opacity="1" fill-rule="nonzero"/><path fill="#c56e4c" d="M 192.175781 85.09375 C 144.472656 83.320312 104.566406 114.320312 103.046875 154.339844 C 102.597656 166.144531 106.121094 178.464844 111.714844 188.535156 C 114.652344 186.414062 118.851562 184.292969 120.054688 187.292969 C 121.691406 191.042969 120.089844 194.117188 117.402344 196.898438 C 132.355469 215.9375 157.609375 228.9375 186.671875 230.019531 C 218.824219 231.214844 247.429688 217.523438 263.132812 196.214844 C 260.824219 195.007812 258.941406 193.195312 258.152344 190.835938 C 257.441406 188.359375 257.917969 186.554688 260.757812 186.203125 C 263.257812 185.953125 266.269531 186.914062 268.003906 188.652344 C 272.296875 180.476562 275.441406 170.289062 275.800781 160.773438 C 277.320312 120.75 239.878906 86.867188 192.175781 85.09375 " fill-opacity="1" fill-rule="nonzero"/><path fill="#f8df96" d="M 196.382812 161.085938 C 207.386719 160.375 218.035156 163.5625 229.042969 164.980469 C 236.496094 166.042969 243.597656 165.6875 249.988281 162.148438 C 257.722656 157.667969 264.753906 151.792969 272.808594 148.449219 C 267.308594 115.402344 233.625 89.050781 192.042969 87.492188 C 145.652344 85.75 106.734375 115.515625 105.289062 153.84375 C 105.289062 153.890625 105.289062 153.933594 105.289062 153.976562 C 134.804688 162.851562 165.59375 162.792969 196.382812 161.085938 " fill-opacity="1" fill-rule="nonzero"/><path fill="#f8edc6" d="M 172.691406 138.527344 L 116.445312 121.386719 C 112.265625 127.390625 107.761719 136.410156 106.402344 143.941406 L 171.457031 144.136719 C 171.648438 142.234375 172.089844 140.367188 172.691406 138.527344 " fill-opacity="1" fill-rule="nonzero"/><path fill="#f7f9df" d="M 172.691406 138.527344 L 116.445312 121.386719 C 115.058594 123.378906 113.636719 125.707031 112.308594 128.195312 L 171.726562 142.296875 C 171.960938 141.027344 172.285156 139.769531 172.691406 138.527344 " fill-opacity="1" fill-rule="nonzero"/><path fill="#f8edc6" d="M 265.878906 128.804688 L 209.425781 140.28125 C 209.804688 141.960938 210.042969 143.652344 210.097656 145.355469 L 272.714844 146.964844 C 271.582031 140.617188 269.160156 134.414062 265.878906 128.804688 " fill-opacity="1" fill-rule="nonzero"/><path fill="#f7f9df" d="M 209.425781 140.28125 C 209.714844 141.554688 209.917969 142.835938 210.027344 144.125 L 269.429688 135.890625 C 268.40625 133.449219 267.210938 131.078125 265.878906 128.804688 L 209.425781 140.28125 " fill-opacity="1" fill-rule="nonzero"/><path fill="#f8edc6" d="M 181.472656 87.679688 L 188.707031 125.121094 C 190.984375 125.160156 193.34375 125.636719 195.777344 126.640625 C 196.054688 126.757812 196.316406 126.890625 196.578125 127.019531 L 211.1875 90.003906 C 201.273438 87.921875 191.203125 86.796875 181.472656 87.679688 " fill-opacity="1" fill-rule="nonzero"/><path fill="#f7f9df" d="M 200.820312 88.238281 L 192.914062 125.691406 C 193.859375 125.929688 194.8125 126.242188 195.777344 126.640625 C 196.054688 126.757812 196.316406 126.890625 196.578125 127.019531 L 211.1875 90.003906 C 207.730469 89.28125 204.273438 88.683594 200.820312 88.238281 " fill-opacity="1" fill-rule="nonzero"/><path fill="#f8edc6" d="M 230.886719 97.117188 L 203.050781 127.144531 C 205.542969 130.730469 207.015625 135.152344 207.925781 139.8125 L 257.449219 117.238281 C 250.953125 109.625 243.261719 102.457031 230.886719 97.117188 " fill-opacity="1" fill-rule="nonzero"/><path fill="#f7f9df" d="M 249.03125 109.363281 L 206.640625 134.6875 C 207.164062 136.34375 207.582031 138.058594 207.925781 139.8125 L 257.449219 117.238281 C 254.757812 114.542969 251.953125 111.898438 249.03125 109.363281 " fill-opacity="1" fill-rule="nonzero"/><path fill="#f8edc6" d="M 181.15625 129.914062 L 157.503906 92.257812 C 147.566406 95.523438 138.558594 100.328125 130.933594 106.335938 L 172.113281 137.84375 C 174.800781 134.5625 177.832031 131.789062 181.15625 129.914062 " fill-opacity="1" fill-rule="nonzero"/><path fill="#f7f9df" d="M 181.15625 129.914062 L 157.503906 92.257812 C 154.65625 93.195312 151.898438 94.269531 149.214844 95.449219 L 177.65625 132.292969 C 178.78125 131.398438 179.949219 130.59375 181.15625 129.914062 " fill-opacity="1" fill-rule="nonzero"/><path fill="#f6c657" d="M 211.773438 139.039062 C 211.773438 151.324219 201.789062 161.28125 189.480469 161.28125 C 177.167969 161.28125 167.1875 151.324219 167.1875 139.039062 C 167.1875 126.757812 177.167969 116.800781 189.480469 116.800781 C 201.789062 116.800781 211.773438 126.757812 211.773438 139.039062 " fill-opacity="1" fill-rule="nonzero"/><path fill="#e4c980" d="M 129.285156 163.5625 C 152.714844 163.917969 175.792969 163.5625 199.222656 163.5625 C 209.871094 163.5625 220.167969 163.5625 231.171875 161.4375 C 238.597656 160.003906 245.214844 156.960938 251.898438 153.933594 C 244.140625 150.589844 236.292969 147.1875 228.046875 146.15625 C 213.335938 144.15625 203.300781 156.832031 189.925781 160.167969 C 173.875 164.839844 157.824219 159.5 142.441406 152.160156 C 132.507812 147.703125 121.835938 152.8125 111.246094 157.648438 C 115.921875 162.535156 123.246094 163.5625 129.285156 163.5625 " fill-opacity="1" fill-rule="nonzero"/><path fill="#efd48b" d="M 272.714844 147.878906 C 269.226562 147.351562 265.691406 147.503906 262.15625 148.824219 C 238.746094 158.167969 214.667969 155.5 190.59375 148.824219 C 171.867188 143.488281 155.820312 156.832031 137.761719 158.835938 C 126.070312 160 115.914062 155.050781 105.503906 150.667969 C 105.40625 151.71875 105.332031 152.777344 105.289062 153.84375 C 105.144531 157.679688 105.386719 161.453125 105.976562 165.144531 C 108.964844 165.40625 111.144531 167.664062 114.019531 168.523438 C 121.476562 170.292969 128.574219 168.878906 136.03125 167.816406 C 137.804688 167.816406 139.582031 167.105469 141 167.105469 C 151.652344 165.6875 161.945312 165.335938 172.597656 163.5625 C 181.117188 162.148438 189.28125 164.273438 197.800781 165.335938 C 207.386719 166.398438 216.261719 163.917969 225.847656 165.335938 C 232.589844 166.042969 238.984375 164.980469 245.371094 162.855469 C 246.792969 162.148438 248.566406 160.730469 250.34375 159.667969 C 252.117188 158.960938 253.894531 160.023438 254.957031 160.730469 C 260.28125 164.273438 266.671875 169.585938 273.0625 165.335938 C 273.085938 165.320312 273.109375 165.304688 273.132812 165.292969 C 273.351562 163.597656 273.492188 161.886719 273.558594 160.15625 C 273.714844 155.984375 273.421875 151.878906 272.714844 147.878906 " fill-opacity="1" fill-rule="nonzero"/><path fill="#90b94b" d="M 272.183594 164.839844 C 270.179688 163.507812 268.839844 166.84375 268.171875 166.175781 C 264.828125 164.839844 264.160156 161.503906 261.484375 160.167969 C 258.140625 158.835938 256.804688 158.835938 253.460938 156.164062 C 250.785156 154.832031 246.769531 156.832031 246.769531 160.167969 C 244.097656 158.167969 239.417969 158.835938 238.078125 162.171875 C 237.410156 162.171875 236.742188 160.835938 236.070312 160.835938 C 232.726562 160.167969 230.722656 162.171875 228.714844 163.507812 C 226.039062 164.839844 223.363281 160.167969 220.019531 163.507812 C 218.347656 159.605469 212.015625 158.5 207.632812 160.179688 C 206.996094 159.1875 205.820312 158.5625 204.636719 158.167969 C 199.957031 156.832031 197.953125 159.5 193.9375 159.5 C 185.914062 160.167969 180.5625 165.507812 173.207031 159.5 C 172.539062 160.835938 171.867188 160.835938 171.199219 162.171875 C 171.867188 159.5 169.195312 158.835938 168.523438 158.835938 C 163.84375 158.167969 160.5 159.5 155.820312 160.167969 C 154.480469 160.167969 153.8125 161.503906 153.8125 162.839844 C 152.476562 162.171875 149.800781 161.503906 149.800781 162.171875 C 147.125 168.175781 143.78125 166.84375 139.097656 164.839844 C 138.429688 165.507812 137.09375 165.507812 137.09375 166.84375 C 137.09375 165.507812 137.761719 163.507812 135.753906 163.507812 C 133.796875 163.507812 131.484375 164.226562 129.59375 165.394531 C 129.335938 164.144531 128.71875 163.15625 127.730469 162.171875 C 123.71875 160.167969 122.378906 164.839844 120.375 164.839844 C 117.699219 164.839844 113.683594 164.171875 111.679688 166.84375 C 111.679688 164.171875 110.339844 163.507812 108.335938 162.839844 C 107.335938 162.507812 106.503906 162.671875 105.675781 163 C 106.425781 169.207031 108.167969 175.195312 110.773438 180.851562 L 268.90625 180.851562 C 270.941406 176.066406 272.351562 171.03125 273.0625 165.804688 C 272.796875 165.480469 272.507812 165.160156 272.183594 164.839844 " fill-opacity="1" fill-rule="nonzero"/><path fill="#a87e50" d="M 106.128906 166.648438 L 106.433594 167.957031 C 110.195312 167.488281 127.003906 165.519531 144.875 165.617188 L 144.882812 164.285156 C 126.726562 164.1875 109.660156 166.203125 106.128906 166.648438 " fill-opacity="1" fill-rule="nonzero"/><path fill="#a87e50" d="M 144.671875 169.679688 L 144.644531 168.34375 C 140.628906 168.429688 132.882812 168.648438 126.125 169.121094 C 117.378906 169.742188 109.640625 170.613281 107.109375 170.914062 L 107.492188 172.210938 C 110.21875 171.890625 117.742188 171.050781 126.226562 170.453125 C 132.949219 169.980469 140.671875 169.765625 144.671875 169.679688 " fill-opacity="1" fill-rule="nonzero"/><path fill="#c09468" d="M 109.175781 163.09375 L 111.09375 177.050781 L 112.457031 176.871094 L 110.535156 162.917969 L 109.175781 163.09375 " fill-opacity="1" fill-rule="nonzero"/><path fill="#c09468" d="M 115.167969 162.625 L 116.621094 176.75 L 117.984375 176.617188 L 116.53125 162.496094 L 115.167969 162.625 " fill-opacity="1" fill-rule="nonzero"/><path fill="#c09468" d="M 122.316406 161.34375 L 122.433594 175.796875 L 123.804688 175.789062 L 123.691406 161.332031 L 122.316406 161.34375 " fill-opacity="1" fill-rule="nonzero"/><path fill="#c09468" d="M 128.253906 161.9375 L 129.183594 174.894531 L 130.550781 174.800781 L 129.621094 161.84375 L 128.253906 161.9375 " fill-opacity="1" fill-rule="nonzero"/><path fill="#c09468" d="M 134.246094 161.636719 L 134.710938 174.425781 L 136.082031 174.378906 L 135.617188 161.589844 L 134.246094 161.636719 " fill-opacity="1" fill-rule="nonzero"/><path fill="#c09468" d="M 140.179688 161.425781 L 140.816406 173.878906 L 142.1875 173.8125 L 141.546875 161.359375 L 140.179688 161.425781 " fill-opacity="1" fill-rule="nonzero"/><path fill="#a87e50" d="M 273.644531 164.117188 L 273.378906 165.433594 C 269.605469 165.066406 252.75 163.5625 234.886719 164.148438 L 234.84375 162.8125 C 252.988281 162.21875 270.105469 163.769531 273.644531 164.117188 " fill-opacity="1" fill-rule="nonzero"/><path fill="#a87e50" d="M 235.199219 168.199219 L 235.191406 166.863281 C 239.207031 166.84375 246.957031 166.847656 253.722656 167.136719 C 262.488281 167.515625 270.242188 168.175781 272.78125 168.40625 L 272.433594 169.714844 C 269.699219 169.472656 262.15625 168.835938 253.660156 168.46875 C 246.925781 168.179688 239.203125 168.175781 235.199219 168.199219 " fill-opacity="1" fill-rule="nonzero"/><path fill="#c09468" d="M 270.8125 160.425781 L 269.277344 174.429688 L 267.914062 174.289062 L 269.449219 160.285156 L 270.8125 160.425781 " fill-opacity="1" fill-rule="nonzero"/><path fill="#c09468" d="M 264.589844 159.769531 L 263.527344 173.925781 L 262.15625 173.832031 L 263.222656 159.671875 L 264.589844 159.769531 " fill-opacity="1" fill-rule="nonzero"/><path fill="#c09468" d="M 258.015625 159.03125 L 256.898438 173.445312 L 255.527344 173.339844 L 256.648438 158.925781 L 258.015625 159.03125 " fill-opacity="1" fill-rule="nonzero"/><path fill="#c09468" d="M 251.480469 160.027344 L 250.746094 172.996094 L 249.375 172.925781 L 250.113281 159.953125 L 251.480469 160.027344 " fill-opacity="1" fill-rule="nonzero"/><path fill="#c09468" d="M 245.671875 159.914062 L 245.019531 172.695312 L 243.648438 172.628906 L 244.300781 159.847656 L 245.671875 159.914062 " fill-opacity="1" fill-rule="nonzero"/><path fill="#c09468" d="M 239.464844 159.828125 L 239.167969 172.296875 L 237.796875 172.265625 L 238.09375 159.800781 L 239.464844 159.828125 " fill-opacity="1" fill-rule="nonzero"/><path fill="#de7b4c" d="M 235.179688 177.960938 L 208.652344 177.960938 L 208.652344 131.703125 L 235.179688 131.703125 L 235.179688 177.960938 " fill-opacity="1" fill-rule="nonzero"/><path fill="#e98865" d="M 235.179688 137.515625 L 208.652344 137.515625 L 208.652344 141.585938 L 235.179688 141.585938 L 235.179688 137.515625 " fill-opacity="1" fill-rule="nonzero"/><path fill="#e98865" d="M 235.179688 164.035156 L 208.652344 164.035156 L 208.652344 169.039062 L 235.179688 169.039062 L 235.179688 164.035156 " fill-opacity="1" fill-rule="nonzero"/><path fill="#d67546" d="M 219.015625 164.617188 C 218.902344 164.503906 218.789062 164.539062 218.703125 164.621094 C 218.679688 164.734375 218.664062 164.851562 218.664062 164.964844 C 218.425781 165.203125 218.511719 164.796875 218.703125 164.621094 C 219.023438 163.035156 221.390625 161.707031 220.414062 160.082031 C 219.714844 158.683594 217.617188 160.082031 215.867188 160.082031 C 217.265625 157.988281 220.0625 157.289062 221.8125 155.542969 C 219.363281 152.753906 215.867188 155.542969 213.070312 154.148438 C 217.265625 152.753906 221.113281 150.660156 225.660156 150.660156 C 222.160156 149.261719 218.664062 149.261719 215.167969 149.261719 C 215.515625 147.519531 217.964844 147.167969 216.566406 145.773438 C 215.515625 145.074219 213.070312 146.121094 213.070312 145.425781 C 213.070312 143.328125 217.964844 143.328125 217.265625 141.238281 C 216.566406 139.839844 213.769531 140.1875 211.667969 140.1875 C 214.117188 137.398438 217.964844 138.445312 220.765625 137.050781 C 217.964844 136.351562 213.59375 135.304688 210.796875 135.304688 C 217.574219 133.050781 220.003906 135.539062 232.707031 131.703125 L 208.652344 131.703125 L 208.652344 177.960938 L 219.71875 177.960938 C 220.210938 173.515625 220.5 169.066406 219.015625 164.617188 " fill-opacity="1" fill-rule="nonzero"/><path fill="#c36a4d" d="M 208.652344 148.910156 L 208.652344 151.496094 L 235.179688 151.496094 L 235.179688 148.910156 L 208.652344 148.910156 " fill-opacity="1" fill-rule="nonzero"/><path fill="#ba6344" d="M 226.207031 146.910156 L 218.183594 146.910156 L 218.183594 138.316406 L 226.207031 138.316406 L 226.207031 146.910156 " fill-opacity="1" fill-rule="nonzero"/><path fill="#a34d2d" d="M 225.636719 146.296875 L 218.75 146.296875 L 218.75 138.929688 L 225.636719 138.929688 L 225.636719 146.296875 " fill-opacity="1" fill-rule="nonzero"/><path fill="#ba6344" d="M 222.574219 146.296875 L 221.8125 146.296875 L 221.8125 138.582031 L 222.574219 138.582031 L 222.574219 146.296875 " fill-opacity="1" fill-rule="nonzero"/><path fill="#ba6344" d="M 226.207031 171.84375 L 218.183594 171.84375 L 218.183594 163.253906 L 226.207031 163.253906 L 226.207031 171.84375 " fill-opacity="1" fill-rule="nonzero"/><path fill="#a34d2d" d="M 225.269531 171.582031 L 219.117188 171.582031 L 219.117188 164.5625 L 225.269531 164.5625 L 225.269531 171.582031 " fill-opacity="1" fill-rule="nonzero"/><path fill="#c36a4d" d="M 208.652344 153.832031 L 208.652344 156.414062 L 235.179688 156.414062 L 235.179688 153.832031 L 208.652344 153.832031 " fill-opacity="1" fill-rule="nonzero"/><path fill="#b6592b" d="M 155.707031 153.832031 L 146.789062 153.832031 L 146.789062 140.042969 L 155.707031 140.042969 L 155.707031 153.832031 " fill-opacity="1" fill-rule="nonzero"/><path fill="#ab4e27" d="M 151.160156 145.773438 C 150.460938 145.773438 150.109375 145.773438 149.410156 145.773438 C 150.109375 144.726562 151.160156 145.074219 151.855469 144.378906 C 150.808594 144.378906 149.757812 144.378906 148.710938 144.027344 C 149.757812 143.328125 151.160156 143.679688 152.207031 142.632812 C 151.160156 141.933594 149.410156 142.632812 148.359375 141.933594 C 150.433594 141.050781 152.757812 140.910156 154.691406 140.042969 L 146.789062 140.042969 L 146.789062 153.832031 L 150.707031 153.832031 C 150.476562 151.054688 150.246094 148.320312 151.160156 145.773438 " fill-opacity="1" fill-rule="nonzero"/><path fill="#e98865" d="M 235.179688 145.65625 L 208.652344 145.65625 L 208.652344 149.828125 L 235.179688 149.828125 L 235.179688 145.65625 " fill-opacity="1" fill-rule="nonzero"/><path fill="#e98865" d="M 235.179688 155.832031 L 208.652344 155.832031 L 208.652344 160.003906 L 235.179688 160.003906 L 235.179688 155.832031 " fill-opacity="1" fill-rule="nonzero"/><path fill="#f19379" d="M 215.171875 177.515625 L 144.617188 177.515625 L 144.617188 154 L 215.171875 154 L 215.171875 177.515625 " fill-opacity="1" fill-rule="nonzero"/><path fill="#e7896e" d="M 174.59375 174.738281 C 180.890625 172.644531 187.882812 171.597656 194.53125 170.898438 C 182.289062 169.152344 169.695312 169.503906 157.105469 169.851562 C 158.503906 168.804688 160.601562 169.503906 162.003906 167.757812 C 158.152344 167.757812 153.957031 167.058594 150.109375 167.410156 C 153.605469 164.617188 158.503906 165.664062 162.351562 163.917969 C 158.152344 162.175781 152.90625 164.269531 149.058594 160.429688 C 155.007812 159.382812 160.601562 159.730469 166.546875 158.683594 C 164.800781 157.988281 162.703125 157.988281 160.601562 157.636719 C 175.691406 156.355469 190.785156 156.25 205.875 155.429688 C 206.289062 154.953125 206.695312 154.472656 207.101562 154 L 144.617188 154 L 144.617188 177.515625 L 179.492188 177.515625 C 181.488281 177.050781 183.472656 176.492188 185.4375 175.785156 C 181.9375 174.039062 178.089844 175.085938 174.59375 174.738281 " fill-opacity="1" fill-rule="nonzero"/><path fill="#e98865" d="M 215.171875 154 L 144.617188 154 L 144.617188 159.945312 L 215.171875 159.945312 L 215.171875 154 " fill-opacity="1" fill-rule="nonzero"/><path fill="#e98865" d="M 215.171875 165.507812 L 144.617188 165.507812 L 144.617188 171.289062 L 215.171875 171.289062 L 215.171875 165.507812 " fill-opacity="1" fill-rule="nonzero"/><path fill="#de7e5b" d="M 166.546875 158.683594 C 164.800781 157.988281 162.703125 157.988281 160.601562 157.636719 C 175.691406 156.355469 190.785156 156.25 205.875 155.429688 C 206.289062 154.953125 206.695312 154.472656 207.101562 154 L 144.617188 154 L 144.617188 159.945312 L 152.601562 159.945312 C 157.265625 159.46875 161.796875 159.523438 166.546875 158.683594 " fill-opacity="1" fill-rule="nonzero"/><path fill="#de7e5b" d="M 144.617188 171.289062 L 191.117188 171.289062 C 192.261719 171.148438 193.402344 171.015625 194.53125 170.898438 C 182.289062 169.152344 169.695312 169.503906 157.105469 169.851562 C 158.503906 168.804688 160.601562 169.503906 162.003906 167.757812 C 158.152344 167.757812 153.957031 167.058594 150.109375 167.410156 C 151.464844 166.324219 153.03125 165.820312 154.667969 165.507812 L 144.617188 165.507812 L 144.617188 171.289062 " fill-opacity="1" fill-rule="nonzero"/><path fill="#c86937" d="M 152.253906 154 L 148.238281 154 L 148.238281 177.515625 L 152.253906 177.515625 L 152.253906 154 " fill-opacity="1" fill-rule="nonzero"/><path fill="#bc5f2e" d="M 150.109375 159.035156 C 149.757812 158.683594 151.160156 157.988281 151.160156 156.941406 C 150.808594 156.242188 149.410156 156.589844 149.757812 155.894531 C 150.429688 155.003906 151.378906 154.679688 152.253906 154.296875 L 152.253906 154 L 148.238281 154 L 148.238281 177.515625 L 149.382812 177.515625 C 149.511719 171.417969 151.035156 165.5 150.109375 159.035156 " fill-opacity="1" fill-rule="nonzero"/><path fill="#c86937" d="M 173.875 157.5 L 173.875 172.847656 L 186.804688 172.847656 L 186.804688 157.5 L 173.875 157.5 " fill-opacity="1" fill-rule="nonzero"/><path fill="#a54927" d="M 175.546875 159.070312 L 175.546875 171.277344 L 185.132812 171.277344 L 185.132812 159.070312 L 175.546875 159.070312 " fill-opacity="1" fill-rule="nonzero"/><path fill="#c86937" d="M 168.972656 154 L 166.519531 154 L 166.519531 177.515625 L 168.972656 177.515625 L 168.972656 154 " fill-opacity="1" fill-rule="nonzero"/><path fill="#b15429" d="M 168.972656 155.707031 L 168.972656 154 L 166.519531 154 L 166.519531 177.515625 L 167.597656 177.515625 C 167.597656 170.660156 167.597656 163.796875 167.597656 156.941406 C 167.597656 156.097656 168.234375 155.890625 168.972656 155.707031 " fill-opacity="1" fill-rule="nonzero"/><path fill="#c86937" d="M 193.714844 154 L 191.261719 154 L 191.261719 177.515625 L 193.714844 177.515625 L 193.714844 154 " fill-opacity="1" fill-rule="nonzero"/><path fill="#b15429" d="M 193.132812 156.242188 C 193.132812 156.242188 192.429688 155.894531 191.730469 155.894531 C 192.488281 155.644531 193.0625 155.03125 193.714844 154.578125 L 193.714844 154 L 191.261719 154 L 191.261719 177.515625 L 192.472656 177.515625 C 192.828125 170.421875 192.0625 163.433594 193.132812 156.242188 " fill-opacity="1" fill-rule="nonzero"/><path fill="#c86937" d="M 211.550781 154 L 207.539062 154 L 207.539062 177.515625 L 211.550781 177.515625 L 211.550781 154 " fill-opacity="1" fill-rule="nonzero"/><path fill="#bc5f2e" d="M 209.917969 169.503906 C 209.222656 165.316406 208.871094 161.824219 209.570312 157.636719 C 209.917969 156.589844 208.871094 156.242188 208.171875 155.894531 C 209.203125 155.121094 210.417969 154.542969 211.550781 154.011719 L 211.550781 154 L 207.539062 154 L 207.539062 177.515625 L 209.808594 177.515625 C 210.125 174.871094 210.34375 172.25 209.917969 169.503906 " fill-opacity="1" fill-rule="nonzero"/><path fill="#bc5f2e" d="M 181.398438 131.144531 L 138.886719 155.054688 L 221.394531 155.054688 Z M 181.398438 131.144531 " fill-opacity="1" fill-rule="nonzero"/><path fill="#de7b4c" d="M 146.53125 153.050781 C 157.898438 153.050781 203.300781 153.050781 214.144531 153.050781 C 205.535156 147.90625 182.964844 134.414062 181.367188 133.460938 C 179.742188 134.375 155.738281 147.875 146.53125 153.050781 " fill-opacity="1" fill-rule="nonzero"/><path fill="#e08964" d="M 188.058594 138.792969 C 186.660156 138.792969 185.261719 140.191406 183.863281 139.839844 C 185.261719 140.191406 186.660156 140.191406 188.058594 140.539062 C 185.609375 142.632812 182.460938 141.585938 180.015625 142.980469 C 183.511719 142.980469 187.011719 142.980469 190.507812 142.980469 C 185.609375 145.773438 179.664062 145.773438 174.417969 146.820312 C 181.414062 146.472656 188.058594 145.773438 195.054688 146.121094 C 191.90625 147.519531 188.757812 146.820312 185.609375 147.867188 C 188.757812 148.214844 191.90625 146.820312 195.054688 148.566406 C 192.257812 148.914062 189.808594 149.960938 187.011719 150.660156 C 194.78125 150.390625 202.34375 150.941406 210.015625 150.585938 C 202.148438 145.882812 190.097656 138.679688 184.429688 135.289062 C 182.730469 135.980469 180.921875 136.515625 179.316406 137.050781 C 182.113281 137.398438 186.3125 136.003906 188.058594 138.792969 " fill-opacity="1" fill-rule="nonzero"/><path fill="#c76836" d="M 165.5 151.707031 C 173.195312 149.960938 181.238281 150.308594 188.933594 149.261719 C 179.839844 147.519531 170.046875 149.960938 160.953125 147.867188 C 167.949219 146.820312 174.59375 146.472656 181.589844 145.773438 C 176.339844 144.378906 171.097656 145.074219 165.847656 144.378906 C 170.046875 143.328125 174.59375 142.980469 178.789062 141.933594 C 176.691406 140.886719 174.59375 141.933594 172.496094 141.585938 C 176.691406 141.238281 180.539062 140.1875 184.738281 139.839844 C 181.238281 139.144531 177.742188 139.144531 174.242188 139.144531 C 176.917969 137.476562 179.277344 135.492188 181.925781 133.792969 C 181.660156 133.632812 181.46875 133.523438 181.367188 133.460938 C 179.742188 134.375 155.738281 147.875 146.53125 153.050781 C 156.25 153.050781 190.832031 153.050781 207.441406 153.050781 C 193.445312 151.714844 179.585938 151.144531 165.5 151.707031 " fill-opacity="1" fill-rule="nonzero"/><path fill="#ba6344" d="M 222.144531 111.042969 L 204.007812 133.121094 L 239.203125 133.121094 Z M 222.144531 111.042969 " fill-opacity="1" fill-rule="nonzero"/><path fill="#d07659" d="M 207.269531 131.269531 C 212.117188 131.269531 231.484375 131.269531 236.109375 131.269531 C 232.4375 126.519531 222.8125 114.066406 222.128906 113.183594 C 221.4375 114.027344 211.195312 126.492188 207.269531 131.269531 " fill-opacity="1" fill-rule="nonzero"/><path fill="#c36a4d" d="M 211.347656 126.308594 C 209.746094 128.257812 208.292969 130.023438 207.269531 131.269531 C 212.117188 131.269531 231.484375 131.269531 236.109375 131.269531 C 235.148438 130.027344 233.78125 128.257812 232.273438 126.308594 L 211.347656 126.308594 " fill-opacity="1" fill-rule="nonzero"/><path fill="#c36a4d" d="M 218.152344 118.023438 C 217.125 119.269531 215.984375 120.660156 214.816406 122.082031 L 229.007812 122.082031 C 227.90625 120.660156 226.835938 119.269531 225.871094 118.023438 L 218.152344 118.023438 " fill-opacity="1" fill-rule="nonzero"/><path fill="#c86937" d="M 156.878906 140.875 L 145.230469 140.875 L 145.230469 137.539062 L 156.878906 137.539062 L 156.878906 140.875 " fill-opacity="1" fill-rule="nonzero"/><path fill="#ba6344" d="M 225.699219 164.191406 C 225.601562 163.984375 225.40625 163.773438 225.160156 163.773438 C 225.042969 163.773438 223.628906 165.332031 222.171875 166.980469 C 220.703125 165.304688 219.335938 163.773438 219.335938 163.773438 C 218.941406 163.773438 218.699219 164.296875 218.894531 164.613281 C 218.980469 164.753906 220.199219 166.175781 221.535156 167.699219 C 220.199219 169.226562 218.980469 170.648438 218.894531 170.789062 C 218.699219 171.101562 218.941406 171.625 219.335938 171.625 C 219.335938 171.625 220.703125 170.09375 222.171875 168.421875 C 223.628906 170.070312 225.042969 171.625 225.160156 171.625 C 225.40625 171.625 225.601562 171.417969 225.699219 171.207031 C 225.746094 171.109375 224.320312 169.433594 222.804688 167.699219 C 224.320312 165.964844 225.746094 164.292969 225.699219 164.191406 " fill-opacity="1" fill-rule="nonzero"/><path fill="#c86937" d="M 186.601562 159.003906 C 186.429688 158.65625 186.078125 158.308594 185.640625 158.308594 C 185.429688 158.308594 182.902344 160.902344 180.304688 163.648438 C 177.679688 160.859375 175.234375 158.308594 175.234375 158.308594 C 174.535156 158.308594 174.097656 159.179688 174.449219 159.703125 C 174.605469 159.9375 176.777344 162.304688 179.167969 164.851562 C 176.777344 167.394531 174.605469 169.761719 174.449219 169.996094 C 174.097656 170.523438 174.535156 171.394531 175.234375 171.394531 C 175.234375 171.394531 177.679688 168.839844 180.304688 166.054688 C 182.902344 168.800781 185.429688 171.394531 185.640625 171.394531 C 186.078125 171.394531 186.429688 171.042969 186.601562 170.695312 C 186.6875 170.53125 184.136719 167.738281 181.433594 164.851562 C 184.136719 161.960938 186.6875 159.171875 186.601562 159.003906 " fill-opacity="1" fill-rule="nonzero"/><path fill="#b7dd5d" d="M 109.125 176.921875 C 119.585938 204.464844 150.121094 225.132812 186.804688 226.511719 C 227.230469 228.027344 261.976562 205.617188 271.203125 174.46875 C 217.269531 169.753906 162.785156 169.316406 109.125 176.921875 " fill-opacity="1" fill-rule="nonzero"/><path fill="#aad652" d="M 131.921875 185.207031 C 137.519531 187.300781 142.761719 190.089844 148.710938 191.835938 C 159.203125 194.976562 170.046875 199.863281 180.890625 197.417969 C 189.632812 195.675781 196.980469 190.789062 205.375 187.996094 C 206.773438 187.648438 208.171875 189.046875 208.871094 189.742188 C 214.117188 192.882812 218.316406 198.117188 223.910156 197.769531 C 232.65625 197.070312 247.347656 197.417969 247.695312 188.347656 C 247.964844 182.195312 241.863281 177.683594 237.898438 172.140625 C 205.960938 170.488281 173.933594 170.597656 142.089844 173.242188 C 138.203125 176.890625 133.308594 179.953125 131.921875 185.207031 " fill-opacity="1" fill-rule="nonzero"/><path fill="#9dcc47" d="M 158.945312 172.078125 C 154.03125 172.351562 149.125 172.675781 144.21875 173.066406 C 133.464844 175.898438 122.820312 179.933594 113.125 185.429688 C 115.617188 191.191406 120.066406 195.953125 124.632812 200.5625 C 134.855469 189.523438 145.972656 179.351562 158.945312 172.078125 " fill-opacity="1" fill-rule="nonzero"/><path fill="#9dcc47" d="M 174.621094 171.402344 C 161.90625 183.796875 150.179688 197.746094 140.917969 213.242188 C 151.976562 219.851562 165.019531 224.332031 179.1875 225.929688 C 179.589844 207.523438 181.132812 189.074219 184.421875 171.167969 C 181.152344 171.226562 177.886719 171.300781 174.621094 171.402344 " fill-opacity="1" fill-rule="nonzero"/><path fill="#9dcc47" d="M 195.402344 171.0625 C 200.339844 189.054688 203.347656 207.308594 204.246094 225.65625 C 218.105469 223.773438 230.832031 219.046875 241.503906 212.210938 C 231.90625 197.589844 219.984375 184.929688 209.140625 171.175781 C 204.558594 171.101562 199.980469 171.050781 195.402344 171.0625 " fill-opacity="1" fill-rule="nonzero"/><path fill="#9dcc47" d="M 239.632812 172.214844 C 234.277344 171.753906 229.351562 171.488281 224.121094 171.5625 C 235.285156 180.332031 246.90625 188.917969 257.839844 198.269531 C 261.097656 194.558594 264.1875 190.925781 266.234375 186.335938 C 257.292969 181.601562 248.144531 177.363281 239.632812 172.214844 " fill-opacity="1" fill-rule="nonzero"/><path fill="#f8df96" d="M 133.242188 199.460938 C 133.84375 197.910156 131.433594 191.027344 122.734375 189.117188 C 114.039062 187.207031 112.359375 189.242188 112.773438 191.089844 C 113.1875 192.9375 114.296875 194.644531 112.273438 200.183594 C 110.246094 205.722656 109.941406 206.894531 112.152344 206.820312 C 114.367188 206.746094 121.425781 208.476562 123.589844 213.757812 C 125.753906 219.035156 132.917969 200.285156 133.242188 199.460938 " fill-opacity="1" fill-rule="nonzero"/><path fill="#f8edc6" d="M 126.148438 202.652344 C 126.148438 201.957031 127.550781 201.605469 128.597656 201.605469 C 128.597656 199.511719 126.148438 199.863281 125.449219 198.464844 C 127.550781 198.464844 129.296875 198.464844 131.046875 199.511719 C 128.949219 194.277344 123 191.835938 117.40625 192.535156 C 118.804688 193.929688 120.203125 194.976562 121.953125 196.023438 C 120.554688 196.375 118.804688 195.675781 117.40625 195.675781 C 118.804688 197.421875 119.855469 199.511719 121.601562 200.910156 C 119.503906 201.257812 117.753906 200.210938 115.65625 200.558594 C 116.355469 202.652344 118.804688 203.699219 118.804688 205.097656 C 118.804688 207.191406 115.308594 204.050781 113.90625 206.144531 C 114.78125 206.492188 115.5625 207.015625 116.261719 207.621094 C 118.09375 208.257812 120.113281 209.304688 121.660156 210.882812 C 124.296875 208.867188 126.585938 206.578125 126.148438 202.652344 " fill-opacity="1" fill-rule="nonzero"/><path fill="#ffffff" d="M 115.128906 190.511719 C 115.570312 189.371094 117.625 188.578125 123.308594 189.828125 C 129.152344 191.113281 131.5625 195.113281 131.988281 197.25 C 127.996094 192.191406 121.445312 189.84375 115.128906 190.511719 " fill-opacity="1" fill-rule="nonzero"/><path fill="#f5b675" d="M 122.851562 202.613281 C 125.476562 201.378906 128.394531 202.625 131.09375 204.664062 C 128.71875 210.082031 125.039062 217.285156 123.589844 213.757812 C 123.117188 212.605469 122.40625 211.632812 121.566406 210.800781 C 122.769531 207.808594 121.617188 203.28125 122.851562 202.613281 " fill-opacity="1" fill-rule="nonzero"/><path fill="#f5b675" d="M 112.273438 200.183594 C 114.296875 194.644531 113.1875 192.9375 112.773438 191.089844 C 112.722656 190.863281 112.71875 190.632812 112.742188 190.402344 C 116 190.355469 120.496094 190.640625 121.136719 193.699219 C 120.785156 195.152344 119.492188 196.085938 118.574219 197.785156 C 117.140625 200.4375 116.222656 204.378906 116.074219 207.566406 C 114.4375 207.015625 112.96875 206.792969 112.152344 206.820312 C 109.941406 206.894531 110.246094 205.722656 112.273438 200.183594 " fill-opacity="1" fill-rule="nonzero"/><path fill="#f3c281" d="M 123.441406 202.824219 C 124.324219 201.28125 125.332031 200.082031 127.761719 199.535156 C 130.191406 198.984375 132.757812 199.011719 133.242188 199.460938 C 133.722656 199.910156 130.25 207.359375 129.265625 209.253906 C 128.28125 211.152344 122.464844 204.546875 123.441406 202.824219 " fill-opacity="1" fill-rule="nonzero"/><path fill="#f6aa6a" d="M 124.257812 201.601562 C 126.742188 202.511719 128.648438 204.832031 131.222656 205.128906 C 130.445312 206.855469 129.65625 208.5 129.265625 209.253906 C 128.28125 211.152344 122.464844 204.546875 123.441406 202.824219 C 123.691406 202.382812 123.957031 201.976562 124.257812 201.601562 " fill-opacity="1" fill-rule="nonzero"/><path fill="#f3c281" d="M 120.667969 192.519531 C 120.410156 191.394531 117.820312 189.957031 115.8125 190.027344 C 113.804688 190.09375 114.398438 190.859375 114.386719 193.042969 C 114.375 195.222656 115.144531 194.714844 117.113281 194.738281 C 119.082031 194.753906 120.667969 192.519531 120.667969 192.519531 " fill-opacity="1" fill-rule="nonzero"/><path fill="#f6aa6a" d="M 114.402344 190.582031 C 116.246094 191.949219 118.429688 192.746094 120.59375 192.320312 C 120.625 192.386719 120.652344 192.453125 120.667969 192.519531 C 120.667969 192.519531 119.082031 194.753906 117.113281 194.738281 C 115.144531 194.714844 114.375 195.222656 114.386719 193.042969 C 114.390625 191.820312 114.210938 191.042969 114.402344 190.582031 " fill-opacity="1" fill-rule="nonzero"/><path fill="#f3c281" d="M 112.832031 189.867188 C 114.464844 192.820312 119.152344 193.429688 119.9375 192.589844 C 120.726562 191.746094 121.242188 193.125 119.785156 194.804688 C 118.324219 196.484375 117.089844 197.808594 116.515625 201.433594 C 115.941406 205.0625 115.816406 206.773438 115.226562 207.996094 C 114.355469 209.796875 108.824219 207.09375 107.605469 205.625 C 106.390625 204.152344 111.371094 200.808594 111.488281 197.769531 C 111.765625 190.601562 112.832031 189.867188 112.832031 189.867188 " fill-opacity="1" fill-rule="nonzero"/><path fill="#f8df96" d="M 118.011719 193.191406 C 118.222656 193.21875 118.460938 193.214844 118.6875 193.222656 C 117.3125 194.8125 116.042969 196.425781 115.457031 200.132812 L 115.109375 202.425781 C 114.839844 204.238281 114.664062 205.367188 114.359375 206.117188 C 113.355469 206.246094 110.304688 204.894531 109.214844 203.851562 C 109.410156 203.414062 110.042969 202.601562 110.5 202.027344 C 111.734375 200.46875 113.132812 198.699219 113.207031 196.738281 C 113.308594 194.160156 113.507812 192.527344 113.703125 191.464844 C 115.03125 192.476562 116.648438 193.019531 118.011719 193.191406 " fill-opacity="1" fill-rule="nonzero"/><path fill="#f6aa6a" d="M 123.851562 192.441406 C 123.8125 192.527344 125.347656 193.292969 127.054688 194.546875 C 128.734375 195.828125 130.042969 196.949219 130.097656 196.886719 C 130.132812 196.84375 128.898438 195.640625 127.203125 194.34375 C 125.476562 193.078125 123.867188 192.398438 123.851562 192.441406 " fill-opacity="1" fill-rule="nonzero"/><path fill="#f6aa6a" d="M 126.195312 195.996094 C 126.152344 196.054688 126.726562 196.554688 127.476562 197.117188 C 128.125 197.769531 128.699219 198.261719 128.757812 198.222656 C 128.816406 198.183594 128.316406 197.601562 127.632812 196.925781 C 126.878906 196.359375 126.238281 195.941406 126.195312 195.996094 " fill-opacity="1" fill-rule="nonzero"/><path fill="#f6aa6a" d="M 118.726562 205.449219 C 118.707031 205.527344 119.351562 205.722656 120.085938 206.0625 C 120.824219 206.417969 121.207031 206.9375 121.289062 206.894531 C 121.347656 206.886719 120.988281 206.214844 120.199219 205.839844 C 119.421875 205.484375 118.738281 205.394531 118.726562 205.449219 " fill-opacity="1" fill-rule="nonzero"/><path fill="#f6aa6a" d="M 118.503906 206.5625 C 118.464844 206.617188 118.949219 206.933594 119.589844 207.261719 C 120.265625 207.496094 120.828125 207.628906 120.84375 207.5625 C 120.863281 207.496094 120.34375 207.257812 119.683594 207.03125 C 119.074219 206.714844 118.542969 206.507812 118.503906 206.5625 " fill-opacity="1" fill-rule="nonzero"/><path fill="#f6aa6a" d="M 111.371094 205.671875 C 111.328125 205.726562 111.859375 206.089844 112.5625 206.484375 C 113.296875 206.777344 113.910156 206.960938 113.933594 206.894531 C 113.957031 206.832031 113.386719 206.542969 112.664062 206.253906 C 111.992188 205.878906 111.414062 205.617188 111.371094 205.671875 " fill-opacity="1" fill-rule="nonzero"/><path fill="#f6aa6a" d="M 111.371094 204.117188 C 111.34375 204.179688 112.128906 204.515625 113.128906 204.863281 C 114.09375 205.25 114.90625 205.511719 114.9375 205.449219 C 114.96875 205.390625 114.195312 205.023438 113.207031 204.628906 C 112.21875 204.28125 111.394531 204.050781 111.371094 204.117188 " fill-opacity="1" fill-rule="nonzero"/><path fill="#f6aa6a" d="M 114.378906 193.996094 C 114.371094 194.097656 115.351562 194.179688 116.453125 194.652344 C 117.535156 195.167969 118.339844 195.734375 118.394531 195.664062 C 118.421875 195.625 117.675781 194.957031 116.554688 194.421875 C 115.40625 193.929688 114.371094 193.960938 114.378906 193.996094 " fill-opacity="1" fill-rule="nonzero"/><path fill="#f6aa6a" d="M 114.9375 195.554688 C 114.921875 195.621094 115.394531 195.871094 116 196.109375 C 116.628906 196.363281 117.148438 196.507812 117.164062 196.441406 C 117.183594 196.375 116.707031 196.125 116.105469 195.882812 C 115.476562 195.632812 114.953125 195.488281 114.9375 195.554688 " fill-opacity="1" fill-rule="nonzero"/><path fill="#f8df96" d="M 245.609375 199.273438 C 245.007812 197.722656 247.417969 190.839844 256.113281 188.933594 C 264.8125 187.023438 266.488281 189.054688 266.074219 190.902344 C 265.664062 192.753906 264.550781 194.457031 266.574219 199.996094 C 268.601562 205.535156 268.910156 206.710938 266.695312 206.632812 C 264.484375 206.558594 257.425781 208.292969 255.257812 213.570312 C 253.09375 218.847656 245.929688 200.097656 245.609375 199.273438 " fill-opacity="1" fill-rule="nonzero"/><path fill="#f8edc6" d="M 260.8125 202.304688 C 259.761719 203.003906 258.714844 203.351562 258.363281 202.304688 C 258.015625 201.257812 260.113281 200.558594 259.414062 199.511719 C 259.0625 198.816406 257.664062 199.863281 256.617188 199.863281 C 256.964844 198.117188 259.0625 198.464844 259.414062 197.070312 C 257.316406 196.722656 255.566406 197.769531 253.816406 198.117188 C 255.214844 196.722656 255.914062 194.628906 258.015625 193.929688 C 253.214844 194.726562 248.621094 198.570312 247.175781 203.132812 C 249.484375 208.574219 253.6875 217.398438 255.257812 213.570312 C 256.414062 210.761719 258.949219 208.957031 261.40625 207.894531 C 261.761719 206.007812 261.929688 204.085938 260.8125 202.304688 " fill-opacity="1" fill-rule="nonzero"/><path fill="#ffffff" d="M 263.722656 190.324219 C 263.277344 189.179688 261.222656 188.390625 255.539062 189.640625 C 249.695312 190.925781 247.289062 194.925781 246.859375 197.0625 C 250.851562 192.003906 257.40625 189.65625 263.722656 190.324219 " fill-opacity="1" fill-rule="nonzero"/><path fill="#f5b675" d="M 255.996094 202.425781 C 253.371094 201.191406 250.457031 202.4375 247.753906 204.480469 C 250.132812 209.890625 253.8125 217.097656 255.257812 213.570312 C 255.730469 212.417969 256.445312 211.445312 257.28125 210.609375 C 256.078125 207.621094 257.230469 203.09375 255.996094 202.425781 " fill-opacity="1" fill-rule="nonzero"/><path fill="#f5b675" d="M 266.574219 199.996094 C 264.550781 194.457031 265.664062 192.753906 266.074219 190.902344 C 266.125 190.675781 266.128906 190.445312 266.109375 190.21875 C 262.847656 190.167969 258.351562 190.453125 257.710938 193.511719 C 258.0625 194.964844 259.355469 195.898438 260.277344 197.597656 C 261.707031 200.25 262.625 204.191406 262.773438 207.378906 C 264.410156 206.828125 265.882812 206.605469 266.695312 206.632812 C 268.910156 206.710938 268.601562 205.535156 266.574219 199.996094 " fill-opacity="1" fill-rule="nonzero"/><path fill="#f3c281" d="M 255.40625 202.636719 C 254.527344 201.09375 253.519531 199.894531 251.089844 199.34375 C 248.65625 198.796875 246.089844 198.824219 245.609375 199.273438 C 245.128906 199.71875 248.601562 207.171875 249.582031 209.066406 C 250.566406 210.964844 256.386719 204.359375 255.40625 202.636719 " fill-opacity="1" fill-rule="nonzero"/><path fill="#f6aa6a" d="M 254.589844 201.414062 C 252.109375 202.324219 250.199219 204.648438 247.625 204.941406 C 248.402344 206.671875 249.191406 208.3125 249.582031 209.066406 C 250.566406 210.964844 256.386719 204.359375 255.40625 202.636719 C 255.15625 202.199219 254.890625 201.792969 254.589844 201.414062 " fill-opacity="1" fill-rule="nonzero"/><path fill="#f3c281" d="M 258.183594 192.332031 C 258.441406 191.207031 261.027344 189.769531 263.035156 189.839844 C 265.046875 189.910156 264.449219 190.671875 264.460938 192.855469 C 264.472656 195.035156 263.703125 194.53125 261.738281 194.550781 C 259.769531 194.570312 258.183594 192.332031 258.183594 192.332031 " fill-opacity="1" fill-rule="nonzero"/><path fill="#f6aa6a" d="M 264.449219 190.394531 C 262.601562 191.765625 260.417969 192.558594 258.253906 192.128906 C 258.222656 192.195312 258.199219 192.265625 258.183594 192.332031 C 258.183594 192.332031 259.769531 194.570312 261.738281 194.550781 C 263.703125 194.53125 264.472656 195.035156 264.460938 192.855469 C 264.457031 191.632812 264.640625 190.855469 264.449219 190.394531 " fill-opacity="1" fill-rule="nonzero"/><g clip-path="url(#id2)"><path fill="#f3c281" d="M 126.847656 203.636719 C 137.609375 208.546875 150.378906 219.664062 187.496094 220.390625 C 234 221.300781 251.425781 203.050781 254.257812 202.101562 C 257.089844 201.152344 254.449219 206.644531 257.101562 210.925781 C 259.75 215.207031 264.304688 215.015625 260.65625 219.425781 C 257 223.839844 229.667969 245.234375 186.371094 242.691406 C 143.074219 240.148438 120.21875 223.304688 118.183594 221.488281 C 116.144531 219.671875 122.28125 214.296875 122.425781 210.113281 C 122.570312 205.929688 122.714844 201.75 126.847656 203.636719 " fill-opacity="1" fill-rule="nonzero"/></g><path fill="#f8df96" d="M 253.457031 204.734375 C 247.199219 209.152344 228.15625 222.589844 188.167969 221.808594 C 157.324219 221.207031 143.238281 213.578125 132.949219 208.011719 C 130.835938 206.863281 128.839844 205.785156 126.964844 204.925781 C 126.148438 204.554688 125.664062 204.539062 125.488281 204.652344 C 124.699219 205.136719 124.589844 208.175781 124.523438 210.1875 C 124.441406 212.519531 122.945312 214.925781 121.621094 217.050781 C 120.964844 218.105469 119.886719 219.839844 119.863281 220.476562 C 119.863281 220.488281 119.863281 220.5 119.863281 220.511719 C 120.535156 221.070312 142.613281 238.707031 187.152344 241.324219 C 229.917969 243.835938 256.761719 222.804688 260.273438 218.5625 C 261.1875 217.460938 261.308594 216.933594 261.316406 216.75 C 261.316406 216.726562 261.316406 216.710938 261.3125 216.699219 C 261.28125 216.359375 260.597656 215.792969 259.933594 215.246094 C 258.917969 214.40625 257.648438 213.367188 256.609375 211.683594 C 255.113281 209.261719 255.078125 206.640625 255.050781 204.722656 C 255.042969 204.390625 255.035156 203.996094 255.019531 203.664062 C 254.625 203.914062 254.039062 204.324219 253.457031 204.734375 " fill-opacity="1" fill-rule="nonzero"/><path fill="#f3c281" d="M 266.015625 189.679688 C 264.382812 192.632812 259.695312 193.242188 258.910156 192.402344 C 258.121094 191.5625 257.605469 192.9375 259.066406 194.617188 C 260.523438 196.296875 261.757812 197.621094 262.335938 201.246094 C 262.90625 204.871094 263.035156 206.585938 263.621094 207.808594 C 264.492188 209.613281 270.023438 206.910156 271.242188 205.4375 C 272.460938 203.964844 267.476562 200.621094 267.359375 197.582031 C 267.082031 190.414062 266.015625 189.679688 266.015625 189.679688 " fill-opacity="1" fill-rule="nonzero"/><path fill="#f8df96" d="M 261.855469 194.109375 C 261.648438 194.136719 261.410156 194.132812 261.179688 194.140625 C 262.554688 195.730469 263.828125 197.347656 264.417969 201.054688 L 264.761719 203.34375 C 265.03125 205.15625 265.203125 206.289062 265.511719 207.035156 C 266.515625 207.164062 269.5625 205.8125 270.65625 204.769531 C 270.457031 204.332031 269.824219 203.523438 269.371094 202.945312 C 268.136719 201.386719 266.734375 199.617188 266.660156 197.65625 C 266.5625 195.078125 266.359375 193.445312 266.164062 192.382812 C 264.839844 193.394531 263.222656 193.941406 261.855469 194.109375 " fill-opacity="1" fill-rule="nonzero"/><path fill="#f8edc6" d="M 235.789062 227.671875 C 238.214844 227.367188 240.894531 226.804688 242.953125 225.324219 C 242.925781 225.210938 242.882812 225.101562 242.839844 224.992188 C 240.292969 226.070312 237.507812 226.609375 234.722656 226.609375 C 237.433594 226.117188 239.804688 225.109375 242.070312 223.949219 C 241.890625 223.792969 241.695312 223.667969 241.488281 223.558594 C 238.03125 224.578125 234.523438 225.101562 230.816406 224.835938 C 233.300781 223.777344 235.789062 222.710938 238.273438 222.003906 C 235.433594 222.003906 232.589844 223.777344 229.398438 223.066406 C 232.441406 222.515625 234.835938 220.890625 237.425781 219.695312 C 208.328125 227.144531 175.632812 230.945312 147.882812 218.457031 C 147.777344 218.5 147.675781 218.542969 147.585938 218.589844 C 147.550781 218.605469 147.519531 218.625 147.484375 218.644531 C 149.1875 219.957031 151.03125 221.078125 153.070312 222.003906 C 149.914062 222.003906 147.039062 221.164062 143.941406 220.480469 C 143.832031 220.511719 143.722656 220.546875 143.617188 220.585938 C 145.890625 221.53125 148.378906 222.476562 150.585938 223.421875 C 147.613281 223.125 144.890625 222.085938 142.207031 221.753906 C 145.476562 223.347656 148.980469 224.621094 152.714844 225.191406 C 149.167969 225.546875 145.972656 224.835938 142.421875 224.835938 C 144.550781 227.316406 147.390625 228.734375 150.585938 229.796875 C 147.464844 229.171875 144.339844 228.550781 141.21875 227.441406 C 141.222656 227.519531 141.226562 227.59375 141.238281 227.667969 C 173 241.855469 211.496094 242.121094 242.957031 226.761719 C 243.003906 226.5625 243.035156 226.359375 243.042969 226.15625 C 240.625 226.859375 238.207031 227.671875 235.789062 227.671875 " fill-opacity="1" fill-rule="nonzero"/><path fill="#f6aa6a" d="M 176.859375 223.613281 C 176.929688 223.585938 164.917969 223.910156 151.101562 219.199219 C 137.222656 214.71875 127.667969 207.476562 127.816406 207.375 C 127.824219 207.28125 137.4375 214.316406 151.242188 218.773438 C 164.980469 223.457031 176.921875 223.339844 176.859375 223.613281 " fill-opacity="1" fill-rule="nonzero"/><path fill="#f6aa6a" d="M 134.28125 215.382812 C 134.230469 215.488281 132.46875 214.742188 130.421875 213.585938 C 128.367188 212.433594 126.84375 211.265625 126.925781 211.15625 C 126.992188 211.066406 128.605469 212.050781 130.644531 213.191406 C 132.679688 214.34375 134.339844 215.261719 134.28125 215.382812 " fill-opacity="1" fill-rule="nonzero"/><path fill="#f6aa6a" d="M 148.769531 224.722656 C 148.765625 224.839844 143.046875 223.730469 136.695312 220.535156 C 130.316406 217.421875 125.726562 213.921875 125.8125 213.824219 C 125.878906 213.722656 130.558594 217.039062 136.890625 220.132812 C 143.203125 223.300781 148.808594 224.59375 148.769531 224.722656 " fill-opacity="1" fill-rule="nonzero"/><path fill="#f6aa6a" d="M 161.253906 236.066406 C 161.253906 236.222656 151.878906 234.632812 141.320312 229.777344 C 130.734375 225.058594 122.835938 219.929688 122.914062 219.832031 C 122.972656 219.71875 130.953125 224.664062 141.503906 229.367188 C 152.023438 234.203125 161.285156 235.972656 161.253906 236.066406 " fill-opacity="1" fill-rule="nonzero"/><path fill="#f6aa6a" d="M 257.164062 218.386719 C 257.34375 218.445312 248.085938 227.207031 233.597656 232.433594 C 219.273438 237.867188 206.746094 238.75 206.785156 238.625 C 206.730469 238.503906 219.183594 237.421875 233.4375 232.015625 C 247.847656 226.816406 257.15625 218.273438 257.164062 218.386719 " fill-opacity="1" fill-rule="nonzero"/><path fill="#f9de9b" d="M 238.886719 231.253906 C 239.105469 231.460938 215.519531 242.210938 192.019531 241.3125 C 157.265625 239.976562 141.21875 231.4375 141.339844 231.253906 C 141.332031 231.023438 169.398438 239.78125 192.671875 239.894531 C 216.054688 240.445312 238.9375 231.066406 238.886719 231.253906 " fill-opacity="1" fill-rule="nonzero"/><path fill="#f6aa6a" d="M 256.890625 216.269531 C 256.996094 216.347656 254.347656 219.160156 250.195312 221.34375 C 246.089844 223.574219 242.429688 224.621094 242.398438 224.5 C 242.359375 224.382812 245.917969 223.152344 249.980469 220.949219 C 254.082031 218.792969 256.804688 216.183594 256.890625 216.269531 " fill-opacity="1" fill-rule="nonzero"/><path fill="#f6aa6a" d="M 256 214.269531 C 256.105469 214.355469 252.03125 218.007812 245.929688 220.679688 C 239.886719 223.417969 234.617188 224.621094 234.597656 224.5 C 234.558594 224.382812 239.742188 222.988281 245.738281 220.269531 C 251.792969 217.621094 255.925781 214.175781 256 214.269531 " fill-opacity="1" fill-rule="nonzero"/><path fill="#f6aa6a" d="M 254.4375 208.265625 C 254.566406 208.339844 249.4375 213.390625 241.429688 216.90625 C 233.523438 220.515625 226.585938 221.953125 226.574219 221.832031 C 226.53125 221.710938 233.386719 220.082031 241.242188 216.496094 C 249.1875 213.007812 254.375 208.171875 254.4375 208.265625 " fill-opacity="1" fill-rule="nonzero"/><path fill="#f6aa6a" d="M 254.996094 192.253906 C 255.035156 192.339844 253.5 193.105469 251.796875 194.359375 C 250.113281 195.640625 248.804688 196.761719 248.753906 196.699219 C 248.714844 196.65625 249.949219 195.453125 251.644531 194.15625 C 253.371094 192.890625 254.984375 192.210938 254.996094 192.253906 " fill-opacity="1" fill-rule="nonzero"/><path fill="#f6aa6a" d="M 252.65625 195.8125 C 252.695312 195.867188 252.121094 196.367188 251.375 196.929688 C 250.722656 197.582031 250.148438 198.074219 250.089844 198.035156 C 250.03125 197.996094 250.535156 197.410156 251.214844 196.734375 C 251.96875 196.167969 252.613281 195.753906 252.65625 195.8125 " fill-opacity="1" fill-rule="nonzero"/><path fill="#f6aa6a" d="M 260.121094 205.261719 C 260.140625 205.339844 259.5 205.535156 258.761719 205.875 C 258.023438 206.230469 257.640625 206.75 257.558594 206.707031 C 257.503906 206.699219 257.859375 206.03125 258.648438 205.652344 C 259.425781 205.296875 260.109375 205.207031 260.121094 205.261719 " fill-opacity="1" fill-rule="nonzero"/><path fill="#f6aa6a" d="M 260.34375 206.375 C 260.386719 206.429688 259.902344 206.746094 259.257812 207.078125 C 258.585938 207.308594 258.019531 207.441406 258.003906 207.375 C 257.988281 207.308594 258.507812 207.070312 259.164062 206.84375 C 259.773438 206.527344 260.304688 206.316406 260.34375 206.375 " fill-opacity="1" fill-rule="nonzero"/><path fill="#f6aa6a" d="M 267.480469 205.484375 C 267.519531 205.539062 266.988281 205.90625 266.289062 206.292969 C 265.550781 206.589844 264.9375 206.773438 264.914062 206.707031 C 264.890625 206.644531 265.460938 206.355469 266.183594 206.066406 C 266.855469 205.6875 267.433594 205.429688 267.480469 205.484375 " fill-opacity="1" fill-rule="nonzero"/><path fill="#f6aa6a" d="M 267.480469 203.929688 C 267.503906 203.992188 266.71875 204.328125 265.722656 204.675781 C 264.753906 205.0625 263.945312 205.324219 263.910156 205.261719 C 263.878906 205.199219 264.652344 204.832031 265.640625 204.441406 C 266.628906 204.09375 267.453125 203.863281 267.480469 203.929688 " fill-opacity="1" fill-rule="nonzero"/><path fill="#f6aa6a" d="M 264.46875 193.808594 C 264.476562 193.910156 263.496094 193.992188 262.394531 194.464844 C 261.3125 194.980469 260.507812 195.546875 260.457031 195.476562 C 260.425781 195.4375 261.171875 194.769531 262.292969 194.234375 C 263.445312 193.742188 264.476562 193.769531 264.46875 193.808594 " fill-opacity="1" fill-rule="nonzero"/><path fill="#f6aa6a" d="M 263.910156 195.367188 C 263.929688 195.433594 263.453125 195.683594 262.847656 195.925781 C 262.222656 196.175781 261.699219 196.324219 261.683594 196.253906 C 261.664062 196.1875 262.140625 195.9375 262.746094 195.695312 C 263.371094 195.445312 263.894531 195.296875 263.910156 195.367188 " fill-opacity="1" fill-rule="nonzero"/><path fill="#91c33c" d="M 154.523438 172.339844 C 154.167969 172.363281 153.8125 172.386719 153.457031 172.410156 C 150.355469 172.609375 147.261719 172.832031 144.164062 173.082031 C 143.261719 173.320312 142.359375 173.570312 141.457031 173.824219 C 137.6875 177.222656 133.230469 180.234375 131.921875 185.207031 C 133.878906 185.9375 135.792969 186.757812 137.710938 187.585938 C 144.273438 181.6875 151.277344 176.375 158.9375 172.082031 C 157.464844 172.160156 155.992188 172.246094 154.523438 172.339844 " fill-opacity="1" fill-rule="nonzero"/><path fill="#91c33c" d="M 154.464844 193.667969 C 163.121094 196.503906 171.964844 199.398438 180.8125 197.4375 C 181.65625 188.597656 182.832031 179.820312 184.421875 171.167969 C 181.152344 171.226562 177.886719 171.300781 174.621094 171.402344 C 167.507812 178.335938 160.703125 185.761719 154.464844 193.667969 " fill-opacity="1" fill-rule="nonzero"/><path fill="#91c33c" d="M 195.402344 171.0625 C 197.140625 177.386719 198.628906 183.746094 199.882812 190.125 C 201.679688 189.351562 203.5 188.621094 205.375 187.996094 C 206.773438 187.648438 208.171875 189.046875 208.871094 189.742188 C 214.117188 192.882812 218.316406 198.117188 223.910156 197.769531 C 225.914062 197.609375 228.234375 197.503906 230.617188 197.328125 C 223.621094 188.515625 216.15625 180.074219 209.140625 171.175781 C 204.558594 171.101562 199.980469 171.050781 195.402344 171.0625 " fill-opacity="1" fill-rule="nonzero"/><path fill="#91c33c" d="M 237.898438 172.140625 C 233.445312 171.910156 228.992188 171.71875 224.535156 171.558594 C 224.398438 171.558594 224.261719 171.558594 224.121094 171.5625 C 231.824219 177.613281 239.742188 183.582031 247.503906 189.769531 C 247.609375 189.324219 247.675781 188.851562 247.695312 188.347656 C 247.964844 182.195312 241.863281 177.683594 237.898438 172.140625 " fill-opacity="1" fill-rule="nonzero"/><g fill="#684f68" fill-opacity="1"><g transform="translate(147.251275, 230.244363)"><g><path d="M 2.828125 -6.359375 L 6.890625 -4.859375 L 6.421875 -3.578125 L 3.75 -4.5625 L 3.3125 -3.390625 L 5.671875 -2.53125 L 5.21875 -1.265625 L 2.859375 -2.125 L 2.296875 -0.59375 L 4.96875 0.390625 L 4.5 1.65625 L 0.4375 0.15625 Z M 2.828125 -6.359375 "/></g></g></g><g fill="#684f68" fill-opacity="1"><g transform="translate(156.651548, 233.433796)"><g><path d="M 4.0625 -1.578125 C 4.332031 -1.222656 4.410156 -0.820312 4.296875 -0.375 C 4.242188 -0.175781 4.140625 0 3.984375 0.15625 C 3.835938 0.320312 3.660156 0.453125 3.453125 0.546875 C 3.253906 0.640625 3.03125 0.695312 2.78125 0.71875 C 2.539062 0.738281 2.289062 0.71875 2.03125 0.65625 C 1.820312 0.601562 1.632812 0.523438 1.46875 0.421875 C 1.300781 0.316406 1.144531 0.195312 1 0.0625 C 0.863281 -0.0625 0.753906 -0.203125 0.671875 -0.359375 C 0.585938 -0.515625 0.535156 -0.671875 0.515625 -0.828125 C 0.691406 -0.859375 0.878906 -0.890625 1.078125 -0.921875 C 1.273438 -0.960938 1.445312 -1.003906 1.59375 -1.046875 C 1.632812 -0.929688 1.703125 -0.820312 1.796875 -0.71875 C 1.890625 -0.613281 2.046875 -0.53125 2.265625 -0.46875 C 2.472656 -0.414062 2.640625 -0.425781 2.765625 -0.5 C 2.890625 -0.570312 2.960938 -0.65625 2.984375 -0.75 C 3.003906 -0.8125 2.988281 -0.875 2.9375 -0.9375 C 2.882812 -1 2.816406 -1.0625 2.734375 -1.125 C 2.617188 -1.21875 2.519531 -1.273438 2.4375 -1.296875 C 2.363281 -1.316406 2.269531 -1.359375 2.15625 -1.421875 C 1.84375 -1.585938 1.613281 -1.757812 1.46875 -1.9375 C 1.332031 -2.125 1.238281 -2.296875 1.1875 -2.453125 C 1.144531 -2.617188 1.132812 -2.765625 1.15625 -2.890625 C 1.1875 -3.023438 1.210938 -3.128906 1.234375 -3.203125 C 1.285156 -3.410156 1.378906 -3.59375 1.515625 -3.75 C 1.648438 -3.914062 1.8125 -4.046875 2 -4.140625 C 2.195312 -4.234375 2.40625 -4.289062 2.625 -4.3125 C 2.851562 -4.332031 3.085938 -4.3125 3.328125 -4.25 C 3.515625 -4.195312 3.6875 -4.125 3.84375 -4.03125 C 4.007812 -3.9375 4.148438 -3.816406 4.265625 -3.671875 C 4.390625 -3.535156 4.484375 -3.378906 4.546875 -3.203125 C 4.617188 -3.035156 4.660156 -2.863281 4.671875 -2.6875 L 3.5625 -2.625 C 3.550781 -2.738281 3.492188 -2.84375 3.390625 -2.9375 C 3.296875 -3.039062 3.179688 -3.113281 3.046875 -3.15625 C 2.921875 -3.1875 2.800781 -3.164062 2.6875 -3.09375 C 2.582031 -3.019531 2.519531 -2.941406 2.5 -2.859375 C 2.46875 -2.753906 2.484375 -2.660156 2.546875 -2.578125 C 2.617188 -2.503906 2.695312 -2.441406 2.78125 -2.390625 C 2.84375 -2.359375 2.90625 -2.328125 2.96875 -2.296875 C 3.03125 -2.273438 3.097656 -2.25 3.171875 -2.21875 C 3.378906 -2.113281 3.550781 -2.007812 3.6875 -1.90625 C 3.832031 -1.800781 3.957031 -1.691406 4.0625 -1.578125 Z M 4.0625 -1.578125 "/></g></g></g><g fill="#684f68" fill-opacity="1"><g transform="translate(165.373722, 235.515784)"><g><path d="M 2.5 -1.3125 C 2.457031 -1.101562 2.492188 -0.925781 2.609375 -0.78125 C 2.722656 -0.632812 2.894531 -0.539062 3.125 -0.5 C 3.300781 -0.46875 3.492188 -0.472656 3.703125 -0.515625 L 3.5 0.609375 C 3.320312 0.628906 3.140625 0.640625 2.953125 0.640625 C 2.765625 0.648438 2.582031 0.640625 2.40625 0.609375 C 2.195312 0.578125 2.003906 0.515625 1.828125 0.421875 C 1.648438 0.335938 1.5 0.21875 1.375 0.0625 C 1.25 -0.0820312 1.160156 -0.265625 1.109375 -0.484375 C 1.054688 -0.703125 1.054688 -0.96875 1.109375 -1.28125 L 1.484375 -3.453125 L 0.8125 -3.578125 L 0.96875 -4.46875 L 1.6875 -4.609375 L 1.875 -5.6875 L 3.21875 -5.453125 L 3.03125 -4.375 L 4.328125 -4.15625 L 4.125 -3 L 2.828125 -3.21875 Z M 2.5 -1.3125 "/></g></g></g><g fill="#684f68" fill-opacity="1"><g transform="translate(173.635838, 236.750617)"><g><path d="M 1.359375 -1.296875 C 1.566406 -1.273438 1.734375 -1.1875 1.859375 -1.03125 C 1.984375 -0.875 2.035156 -0.691406 2.015625 -0.484375 C 1.992188 -0.273438 1.90625 -0.109375 1.75 0.015625 C 1.601562 0.148438 1.425781 0.207031 1.21875 0.1875 C 1.007812 0.175781 0.835938 0.09375 0.703125 -0.0625 C 0.566406 -0.226562 0.507812 -0.414062 0.53125 -0.625 C 0.550781 -0.832031 0.640625 -1 0.796875 -1.125 C 0.960938 -1.25 1.148438 -1.304688 1.359375 -1.296875 Z M 1.359375 -1.296875 "/></g></g></g><g fill="#684f68" fill-opacity="1"><g transform="translate(180.647139, 237.269256)"><g/></g></g><g fill="#684f68" fill-opacity="1"><g transform="translate(187.948218, 237.297256)"><g><path d="M 0.234375 -6.953125 L 2.53125 -7.0625 L 2.890625 -0.140625 L 1.40625 -0.078125 L 1.125 -5.65625 L 0.3125 -5.609375 Z M 0.234375 -6.953125 "/></g></g></g><g fill="#684f68" fill-opacity="1"><g transform="translate(196.168724, 236.710936)"><g><path d="M 1.71875 -7.34375 C 2.050781 -7.382812 2.367188 -7.363281 2.671875 -7.28125 C 2.984375 -7.207031 3.257812 -7.078125 3.5 -6.890625 C 3.75 -6.703125 3.957031 -6.476562 4.125 -6.21875 C 4.300781 -5.957031 4.410156 -5.660156 4.453125 -5.328125 C 4.484375 -5.097656 4.476562 -4.875 4.4375 -4.65625 C 4.394531 -4.445312 4.335938 -4.226562 4.265625 -4 C 4.253906 -3.976562 4.226562 -3.910156 4.1875 -3.796875 C 4.144531 -3.679688 4.085938 -3.535156 4.015625 -3.359375 C 3.953125 -3.191406 3.882812 -3 3.8125 -2.78125 C 3.738281 -2.570312 3.660156 -2.359375 3.578125 -2.140625 C 3.390625 -1.617188 3.175781 -1.046875 2.9375 -0.421875 L 1.296875 -0.1875 L 2.21875 -2.625 C 1.894531 -2.582031 1.585938 -2.601562 1.296875 -2.6875 C 1.003906 -2.78125 0.75 -2.921875 0.53125 -3.109375 C 0.3125 -3.304688 0.128906 -3.535156 -0.015625 -3.796875 C -0.160156 -4.054688 -0.253906 -4.335938 -0.296875 -4.640625 C -0.335938 -4.972656 -0.316406 -5.289062 -0.234375 -5.59375 C -0.148438 -5.894531 -0.0195312 -6.164062 0.15625 -6.40625 C 0.332031 -6.65625 0.554688 -6.859375 0.828125 -7.015625 C 1.097656 -7.179688 1.394531 -7.289062 1.71875 -7.34375 Z M 2.921875 -4.421875 C 2.972656 -4.546875 3.007812 -4.675781 3.03125 -4.8125 C 3.0625 -4.945312 3.070312 -5.0625 3.0625 -5.15625 C 3.039062 -5.289062 3 -5.414062 2.9375 -5.53125 C 2.875 -5.65625 2.789062 -5.753906 2.6875 -5.828125 C 2.582031 -5.898438 2.46875 -5.957031 2.34375 -6 C 2.21875 -6.039062 2.085938 -6.050781 1.953125 -6.03125 C 1.828125 -6.019531 1.710938 -5.972656 1.609375 -5.890625 C 1.503906 -5.816406 1.414062 -5.726562 1.34375 -5.625 C 1.269531 -5.53125 1.21875 -5.414062 1.1875 -5.28125 C 1.15625 -5.15625 1.148438 -5.023438 1.171875 -4.890625 C 1.210938 -4.609375 1.328125 -4.375 1.515625 -4.1875 C 1.710938 -4.007812 1.960938 -3.941406 2.265625 -3.984375 C 2.390625 -4.003906 2.507812 -4.046875 2.625 -4.109375 C 2.738281 -4.171875 2.832031 -4.265625 2.90625 -4.390625 Z M 2.921875 -4.421875 "/></g></g></g><g fill="#684f68" fill-opacity="1"><g transform="translate(206.243614, 235.036006)"><g><path d="M 3.171875 -4.71875 C 3.335938 -4.675781 3.492188 -4.609375 3.640625 -4.515625 C 3.785156 -4.429688 3.914062 -4.328125 4.03125 -4.203125 C 4.15625 -4.078125 4.265625 -3.9375 4.359375 -3.78125 C 4.453125 -3.625 4.519531 -3.460938 4.5625 -3.296875 C 4.632812 -3.003906 4.640625 -2.707031 4.578125 -2.40625 C 4.515625 -2.113281 4.394531 -1.84375 4.21875 -1.59375 C 4.050781 -1.351562 3.84375 -1.140625 3.59375 -0.953125 C 3.34375 -0.765625 3.054688 -0.628906 2.734375 -0.546875 C 2.421875 -0.460938 2.101562 -0.445312 1.78125 -0.5 C 1.46875 -0.550781 1.179688 -0.644531 0.921875 -0.78125 C 0.671875 -0.925781 0.445312 -1.113281 0.25 -1.34375 C 0.0625 -1.582031 -0.0664062 -1.847656 -0.140625 -2.140625 C -0.222656 -2.472656 -0.222656 -2.804688 -0.140625 -3.140625 C -0.0546875 -3.472656 0.117188 -3.769531 0.390625 -4.03125 C 0.117188 -4.125 -0.0859375 -4.265625 -0.234375 -4.453125 C -0.378906 -4.640625 -0.484375 -4.851562 -0.546875 -5.09375 C -0.609375 -5.351562 -0.613281 -5.609375 -0.5625 -5.859375 C -0.519531 -6.117188 -0.425781 -6.359375 -0.28125 -6.578125 C -0.132812 -6.796875 0.046875 -6.984375 0.265625 -7.140625 C 0.492188 -7.304688 0.742188 -7.425781 1.015625 -7.5 C 1.296875 -7.570312 1.570312 -7.582031 1.84375 -7.53125 C 2.125 -7.488281 2.375 -7.40625 2.59375 -7.28125 C 2.820312 -7.15625 3.019531 -6.992188 3.1875 -6.796875 C 3.363281 -6.597656 3.484375 -6.367188 3.546875 -6.109375 C 3.609375 -5.867188 3.597656 -5.628906 3.515625 -5.390625 C 3.441406 -5.148438 3.328125 -4.925781 3.171875 -4.71875 Z M 1.359375 -6.171875 C 1.160156 -6.117188 1.007812 -6.003906 0.90625 -5.828125 C 0.800781 -5.660156 0.773438 -5.488281 0.828125 -5.3125 C 0.859375 -5.175781 0.921875 -5.0625 1.015625 -4.96875 C 1.109375 -4.882812 1.21875 -4.828125 1.34375 -4.796875 C 1.46875 -4.785156 1.582031 -4.789062 1.6875 -4.8125 C 1.75 -4.820312 1.800781 -4.835938 1.84375 -4.859375 C 1.894531 -4.890625 1.941406 -4.921875 1.984375 -4.953125 C 2.085938 -5.046875 2.15625 -5.148438 2.1875 -5.265625 C 2.226562 -5.390625 2.234375 -5.519531 2.203125 -5.65625 C 2.148438 -5.832031 2.039062 -5.972656 1.875 -6.078125 C 1.71875 -6.191406 1.546875 -6.222656 1.359375 -6.171875 Z M 2.421875 -1.890625 C 2.546875 -1.921875 2.65625 -1.972656 2.75 -2.046875 C 2.84375 -2.128906 2.914062 -2.222656 2.96875 -2.328125 C 3.03125 -2.441406 3.070312 -2.5625 3.09375 -2.6875 C 3.113281 -2.8125 3.113281 -2.9375 3.09375 -3.0625 C 3.039062 -3.257812 2.941406 -3.414062 2.796875 -3.53125 C 2.660156 -3.65625 2.5 -3.738281 2.3125 -3.78125 C 2.195312 -3.789062 2.078125 -3.78125 1.953125 -3.75 C 1.816406 -3.71875 1.707031 -3.671875 1.625 -3.609375 C 1.476562 -3.492188 1.367188 -3.347656 1.296875 -3.171875 C 1.234375 -3.003906 1.226562 -2.820312 1.28125 -2.625 C 1.300781 -2.5 1.347656 -2.382812 1.421875 -2.28125 C 1.503906 -2.175781 1.597656 -2.085938 1.703125 -2.015625 C 1.804688 -1.953125 1.921875 -1.90625 2.046875 -1.875 C 2.171875 -1.851562 2.296875 -1.859375 2.421875 -1.890625 Z M 2.421875 -1.890625 "/></g></g></g><g fill="#684f68" fill-opacity="1"><g transform="translate(216.173956, 232.338029)"><g><path d="M 0.515625 -7.640625 C 0.878906 -7.773438 1.242188 -7.832031 1.609375 -7.8125 C 1.972656 -7.789062 2.316406 -7.679688 2.640625 -7.484375 C 2.953125 -7.296875 3.234375 -7.039062 3.484375 -6.71875 C 3.742188 -6.40625 3.953125 -6.023438 4.109375 -5.578125 L 4.40625 -4.78125 C 4.550781 -4.351562 4.625 -3.941406 4.625 -3.546875 C 4.632812 -3.148438 4.570312 -2.78125 4.4375 -2.4375 C 4.300781 -2.09375 4.101562 -1.789062 3.84375 -1.53125 C 3.59375 -1.28125 3.289062 -1.085938 2.9375 -0.953125 C 2.582031 -0.828125 2.222656 -0.785156 1.859375 -0.828125 C 1.503906 -0.867188 1.160156 -0.988281 0.828125 -1.1875 C 0.515625 -1.363281 0.226562 -1.601562 -0.03125 -1.90625 C -0.289062 -2.207031 -0.492188 -2.5625 -0.640625 -2.96875 L -0.9375 -3.765625 C -1.09375 -4.210938 -1.171875 -4.632812 -1.171875 -5.03125 C -1.179688 -5.4375 -1.128906 -5.816406 -1.015625 -6.171875 C -0.898438 -6.515625 -0.707031 -6.8125 -0.4375 -7.0625 C -0.175781 -7.3125 0.140625 -7.503906 0.515625 -7.640625 Z M 2.734375 -5.03125 C 2.523438 -5.625 2.242188 -6.035156 1.890625 -6.265625 C 1.597656 -6.453125 1.289062 -6.488281 0.96875 -6.375 C 0.632812 -6.25 0.414062 -6.023438 0.3125 -5.703125 C 0.207031 -5.304688 0.257812 -4.8125 0.46875 -4.21875 L 0.71875 -3.53125 C 0.8125 -3.269531 0.925781 -3.039062 1.0625 -2.84375 C 1.195312 -2.644531 1.359375 -2.488281 1.546875 -2.375 C 1.859375 -2.15625 2.164062 -2.101562 2.46875 -2.21875 C 2.632812 -2.28125 2.769531 -2.375 2.875 -2.5 C 2.988281 -2.632812 3.0625 -2.796875 3.09375 -2.984375 C 3.132812 -3.171875 3.148438 -3.378906 3.140625 -3.609375 C 3.128906 -3.835938 3.078125 -4.082031 2.984375 -4.34375 Z M 2.734375 -5.03125 "/></g></g></g><g fill="#1f1a16" fill-opacity="1"><g transform="translate(15.784706, 264.360364)"><g><path d="M 12.015625 -11.421875 L 5.0625 -11.421875 L 5.0625 -8.125 L 11.46875 -8.125 L 11.46875 -5.265625 L 5.0625 -5.265625 L 5.0625 0 L 1.421875 0 L 1.421875 -14.28125 L 12.015625 -14.28125 Z M 12.015625 -11.421875 "/></g></g></g><g fill="#1f1a16" fill-opacity="1"><g transform="translate(33.90356, 264.360364)"><g><path d="M 10.921875 -2.625 L 4.671875 -2.625 L 3.625 0 L -0.109375 0 L 6.0625 -14.28125 L 9.796875 -14.28125 L 15.8125 0 L 11.9375 0 Z M 9.859375 -5.390625 L 7.8125 -10.671875 L 5.734375 -5.390625 Z M 9.859375 -5.390625 "/></g></g></g><g fill="#1f1a16" fill-opacity="1"><g transform="translate(55.409202, 264.360364)"><g><path d="M 10.046875 0 L 7.921875 -4.015625 L 5.0625 -4.015625 L 5.0625 0 L 1.421875 0 L 1.421875 -14.28125 L 7.8125 -14.28125 C 9.707031 -14.28125 11.171875 -13.847656 12.203125 -12.984375 C 13.234375 -12.117188 13.75 -10.894531 13.75 -9.3125 C 13.75 -7.101562 12.882812 -5.570312 11.15625 -4.71875 L 14.15625 0 Z M 5.0625 -6.875 L 7.8125 -6.875 C 8.601562 -6.875 9.21875 -7.070312 9.65625 -7.46875 C 10.09375 -7.863281 10.3125 -8.4375 10.3125 -9.1875 C 10.3125 -9.914062 10.09375 -10.46875 9.65625 -10.84375 C 9.21875 -11.226562 8.601562 -11.421875 7.8125 -11.421875 L 5.0625 -11.421875 Z M 5.0625 -6.875 "/></g></g></g><g fill="#1f1a16" fill-opacity="1"><g transform="translate(75.976334, 264.360364)"><g><path d="M 17.125 0 L 13.921875 0 L 13.890625 -9.28125 L 10.46875 -1.421875 L 8.09375 -1.421875 L 4.671875 -9.28125 L 4.671875 0 L 1.421875 0 L 1.421875 -14.3125 L 5.40625 -14.3125 L 9.28125 -5.796875 L 13.15625 -14.3125 L 17.125 -14.3125 Z M 17.125 0 "/></g></g></g><g fill="#1f1a16" fill-opacity="1"><g transform="translate(100.338297, 264.360364)"><g><path d="M 5.0625 0 L 1.421875 0 L 1.421875 -14.28125 L 5.0625 -14.28125 Z M 5.0625 0 "/></g></g></g><g fill="#1f1a16" fill-opacity="1"><g transform="translate(112.622087, 264.360364)"><g><path d="M 14.609375 0 L 11.40625 0 L 4.84375 -8.796875 L 4.84375 0 L 1.421875 0 L 1.421875 -14.28125 L 4.625 -14.28125 L 11.21875 -5.46875 L 11.21875 -14.28125 L 14.609375 -14.28125 Z M 14.609375 0 "/></g></g></g><g fill="#1f1a16" fill-opacity="1"><g transform="translate(134.454163, 264.360364)"><g><path d="M 10.921875 -7.265625 L 14.0625 -7.265625 L 14.0625 -1.6875 C 13.28125 -1.144531 12.34375 -0.703125 11.25 -0.359375 C 10.15625 -0.015625 9.113281 0.15625 8.125 0.15625 C 5.945312 0.15625 4.128906 -0.535156 2.671875 -1.921875 C 1.210938 -3.316406 0.484375 -5.054688 0.484375 -7.140625 C 0.484375 -9.210938 1.234375 -10.941406 2.734375 -12.328125 C 4.234375 -13.710938 6.109375 -14.40625 8.359375 -14.40625 C 9.421875 -14.40625 10.472656 -14.210938 11.515625 -13.828125 C 12.566406 -13.453125 13.460938 -12.9375 14.203125 -12.28125 L 12.15625 -9.8125 C 11.644531 -10.289062 11.046875 -10.664062 10.359375 -10.9375 C 9.679688 -11.21875 9.007812 -11.359375 8.34375 -11.359375 C 7.175781 -11.359375 6.191406 -10.953125 5.390625 -10.140625 C 4.597656 -9.335938 4.203125 -8.335938 4.203125 -7.140625 C 4.203125 -5.929688 4.601562 -4.914062 5.40625 -4.09375 C 6.207031 -3.28125 7.203125 -2.875 8.390625 -2.875 C 9.148438 -2.875 9.992188 -3.109375 10.921875 -3.578125 Z M 10.921875 -7.265625 "/></g></g></g><g fill="#1f1a16" fill-opacity="1"><g transform="translate(155.408934, 264.360364)"><g><path d="M 6.515625 -5.140625 L 1.125 -5.140625 L 1.125 -7.359375 L 6.515625 -7.359375 Z M 6.515625 -5.140625 "/></g></g></g><g fill="#1f1a16" fill-opacity="1"><g transform="translate(168.835256, 264.360364)"><g><path d="M 1.421875 -14.28125 L 7.65625 -14.28125 C 9.476562 -14.28125 10.890625 -13.847656 11.890625 -12.984375 C 12.898438 -12.117188 13.40625 -10.894531 13.40625 -9.3125 C 13.40625 -7.632812 12.898438 -6.332031 11.890625 -5.40625 C 10.890625 -4.476562 9.476562 -4.015625 7.65625 -4.015625 L 5.0625 -4.015625 L 5.0625 0 L 1.421875 0 Z M 5.0625 -11.421875 L 5.0625 -6.875 L 7.46875 -6.875 C 8.269531 -6.875 8.890625 -7.070312 9.328125 -7.46875 C 9.765625 -7.863281 9.984375 -8.4375 9.984375 -9.1875 C 9.984375 -9.914062 9.765625 -10.46875 9.328125 -10.84375 C 8.890625 -11.226562 8.269531 -11.421875 7.46875 -11.421875 Z M 5.0625 -11.421875 "/></g></g></g><g fill="#1f1a16" fill-opacity="1"><g transform="translate(188.504684, 264.360364)"><g><path d="M 10.046875 0 L 7.921875 -4.015625 L 5.0625 -4.015625 L 5.0625 0 L 1.421875 0 L 1.421875 -14.28125 L 7.8125 -14.28125 C 9.707031 -14.28125 11.171875 -13.847656 12.203125 -12.984375 C 13.234375 -12.117188 13.75 -10.894531 13.75 -9.3125 C 13.75 -7.101562 12.882812 -5.570312 11.15625 -4.71875 L 14.15625 0 Z M 5.0625 -6.875 L 7.8125 -6.875 C 8.601562 -6.875 9.21875 -7.070312 9.65625 -7.46875 C 10.09375 -7.863281 10.3125 -8.4375 10.3125 -9.1875 C 10.3125 -9.914062 10.09375 -10.46875 9.65625 -10.84375 C 9.21875 -11.226562 8.601562 -11.421875 7.8125 -11.421875 L 5.0625 -11.421875 Z M 5.0625 -6.875 "/></g></g></g><g fill="#1f1a16" fill-opacity="1"><g transform="translate(209.07181, 264.360364)"><g><path d="M 8.203125 -14.40625 C 10.421875 -14.40625 12.265625 -13.710938 13.734375 -12.328125 C 15.203125 -10.953125 15.9375 -9.226562 15.9375 -7.15625 C 15.9375 -5.082031 15.195312 -3.34375 13.71875 -1.9375 C 12.25 -0.539062 10.410156 0.15625 8.203125 0.15625 C 5.992188 0.15625 4.15625 -0.535156 2.6875 -1.921875 C 1.21875 -3.316406 0.484375 -5.0625 0.484375 -7.15625 C 0.484375 -9.238281 1.21875 -10.96875 2.6875 -12.34375 C 4.15625 -13.71875 5.992188 -14.40625 8.203125 -14.40625 Z M 8.25 -11.359375 C 7.132812 -11.359375 6.179688 -10.953125 5.390625 -10.140625 C 4.597656 -9.335938 4.203125 -8.335938 4.203125 -7.140625 C 4.203125 -5.941406 4.597656 -4.929688 5.390625 -4.109375 C 6.191406 -3.285156 7.140625 -2.875 8.234375 -2.875 C 9.335938 -2.875 10.273438 -3.285156 11.046875 -4.109375 C 11.816406 -4.929688 12.203125 -5.941406 12.203125 -7.140625 C 12.203125 -8.335938 11.816406 -9.335938 11.046875 -10.140625 C 10.273438 -10.953125 9.34375 -11.359375 8.25 -11.359375 Z M 8.25 -11.359375 "/></g></g></g><g fill="#1f1a16" fill-opacity="1"><g transform="translate(231.29152, 264.360364)"><g><path d="M 1.421875 -14.28125 L 7.578125 -14.28125 C 9.816406 -14.28125 11.640625 -13.617188 13.046875 -12.296875 C 14.453125 -10.984375 15.15625 -9.265625 15.15625 -7.140625 C 15.15625 -5.035156 14.441406 -3.316406 13.015625 -1.984375 C 11.585938 -0.660156 9.722656 0 7.421875 0 L 1.421875 0 Z M 5.0625 -11.390625 L 5.0625 -2.890625 L 7.65625 -2.890625 C 8.769531 -2.890625 9.679688 -3.28125 10.390625 -4.0625 C 11.109375 -4.851562 11.46875 -5.875 11.46875 -7.125 C 11.46875 -8.375 11.09375 -9.394531 10.34375 -10.1875 C 9.59375 -10.988281 8.640625 -11.390625 7.484375 -11.390625 Z M 5.0625 -11.390625 "/></g></g></g><g fill="#1f1a16" fill-opacity="1"><g transform="translate(252.735939, 264.360364)"><g><path d="M 14.28125 -14.28125 L 14.28125 -6 C 14.28125 -4.101562 13.695312 -2.601562 12.53125 -1.5 C 11.363281 -0.394531 9.78125 0.15625 7.78125 0.15625 C 5.757812 0.15625 4.15625 -0.394531 2.96875 -1.5 C 1.78125 -2.601562 1.1875 -4.101562 1.1875 -6 L 1.1875 -14.28125 L 4.8125 -14.28125 L 4.8125 -6 C 4.8125 -5.050781 5.085938 -4.289062 5.640625 -3.71875 C 6.191406 -3.15625 6.910156 -2.875 7.796875 -2.875 C 8.660156 -2.875 9.351562 -3.148438 9.875 -3.703125 C 10.40625 -4.265625 10.671875 -5.03125 10.671875 -6 L 10.671875 -14.28125 Z M 14.28125 -14.28125 "/></g></g></g><g fill="#1f1a16" fill-opacity="1"><g transform="translate(273.996748, 264.360364)"><g><path d="M 8.125 -14.40625 C 9.1875 -14.40625 10.226562 -14.1875 11.25 -13.75 C 12.28125 -13.3125 13.15625 -12.726562 13.875 -12 L 11.78125 -9.515625 C 11.3125 -10.078125 10.753906 -10.523438 10.109375 -10.859375 C 9.460938 -11.191406 8.820312 -11.359375 8.1875 -11.359375 C 7.050781 -11.359375 6.101562 -10.960938 5.34375 -10.171875 C 4.582031 -9.378906 4.203125 -8.394531 4.203125 -7.21875 C 4.203125 -6.019531 4.582031 -5.019531 5.34375 -4.21875 C 6.101562 -3.414062 7.050781 -3.015625 8.1875 -3.015625 C 8.78125 -3.015625 9.398438 -3.164062 10.046875 -3.46875 C 10.691406 -3.769531 11.269531 -4.175781 11.78125 -4.6875 L 13.890625 -2.453125 C 13.117188 -1.660156 12.207031 -1.023438 11.15625 -0.546875 C 10.101562 -0.078125 9.050781 0.15625 8 0.15625 C 5.851562 0.15625 4.0625 -0.539062 2.625 -1.9375 C 1.195312 -3.34375 0.484375 -5.09375 0.484375 -7.1875 C 0.484375 -9.238281 1.210938 -10.953125 2.671875 -12.328125 C 4.128906 -13.710938 5.945312 -14.40625 8.125 -14.40625 Z M 8.125 -14.40625 "/></g></g></g><g fill="#1f1a16" fill-opacity="1"><g transform="translate(293.911, 264.360364)"><g><path d="M 12.34375 -11.359375 L 8.046875 -11.359375 L 8.046875 0 L 4.40625 0 L 4.40625 -11.359375 L 0.140625 -11.359375 L 0.140625 -14.3125 L 12.34375 -14.3125 Z M 12.34375 -11.359375 "/></g></g></g><g fill="#1f1a16" fill-opacity="1"><g transform="translate(312.172657, 264.360364)"><g><path d="M 5.0625 0 L 1.421875 0 L 1.421875 -14.28125 L 5.0625 -14.28125 Z M 5.0625 0 "/></g></g></g><g fill="#1f1a16" fill-opacity="1"><g transform="translate(324.456447, 264.360364)"><g><path d="M 8.203125 -14.40625 C 10.421875 -14.40625 12.265625 -13.710938 13.734375 -12.328125 C 15.203125 -10.953125 15.9375 -9.226562 15.9375 -7.15625 C 15.9375 -5.082031 15.195312 -3.34375 13.71875 -1.9375 C 12.25 -0.539062 10.410156 0.15625 8.203125 0.15625 C 5.992188 0.15625 4.15625 -0.535156 2.6875 -1.921875 C 1.21875 -3.316406 0.484375 -5.0625 0.484375 -7.15625 C 0.484375 -9.238281 1.21875 -10.96875 2.6875 -12.34375 C 4.15625 -13.71875 5.992188 -14.40625 8.203125 -14.40625 Z M 8.25 -11.359375 C 7.132812 -11.359375 6.179688 -10.953125 5.390625 -10.140625 C 4.597656 -9.335938 4.203125 -8.335938 4.203125 -7.140625 C 4.203125 -5.941406 4.597656 -4.929688 5.390625 -4.109375 C 6.191406 -3.285156 7.140625 -2.875 8.234375 -2.875 C 9.335938 -2.875 10.273438 -3.285156 11.046875 -4.109375 C 11.816406 -4.929688 12.203125 -5.941406 12.203125 -7.140625 C 12.203125 -8.335938 11.816406 -9.335938 11.046875 -10.140625 C 10.273438 -10.953125 9.34375 -11.359375 8.25 -11.359375 Z M 8.25 -11.359375 "/></g></g></g><g fill="#1f1a16" fill-opacity="1"><g transform="translate(346.676157, 264.360364)"><g><path d="M 14.609375 0 L 11.40625 0 L 4.84375 -8.796875 L 4.84375 0 L 1.421875 0 L 1.421875 -14.28125 L 4.625 -14.28125 L 11.21875 -5.46875 L 11.21875 -14.28125 L 14.609375 -14.28125 Z M 14.609375 0 "/></g></g></g><g fill="#000000" fill-opacity="1"><g transform="translate(124.652805, 289.519582)"><g><path d="M 8.546875 -11.34375 L 8.546875 -9.84375 L 2.5625 -9.84375 L 2.5625 -6.75 L 7.984375 -6.75 L 7.984375 -5.203125 L 2.5625 -5.203125 L 2.5625 0 L 0.890625 0 L 0.890625 -11.34375 Z M 8.546875 -11.34375 "/></g></g></g><g fill="#000000" fill-opacity="1"><g transform="translate(134.442734, 289.519582)"><g><path d="M 8.15625 -7.65625 L 8.15625 0 L 6.84375 0 L 6.609375 -0.875 C 6.335938 -0.53125 5.992188 -0.265625 5.578125 -0.078125 C 5.160156 0.0976562 4.738281 0.1875 4.3125 0.1875 C 3.78125 0.1875 3.28125 0.0820312 2.8125 -0.125 C 2.351562 -0.332031 1.953125 -0.613281 1.609375 -0.96875 C 1.265625 -1.332031 0.988281 -1.757812 0.78125 -2.25 C 0.582031 -2.738281 0.484375 -3.265625 0.484375 -3.828125 C 0.484375 -4.378906 0.582031 -4.898438 0.78125 -5.390625 C 0.988281 -5.878906 1.265625 -6.304688 1.609375 -6.671875 C 1.953125 -7.035156 2.351562 -7.320312 2.8125 -7.53125 C 3.28125 -7.738281 3.78125 -7.84375 4.3125 -7.84375 C 4.738281 -7.84375 5.148438 -7.757812 5.546875 -7.59375 C 5.941406 -7.425781 6.296875 -7.164062 6.609375 -6.8125 L 6.84375 -7.65625 Z M 4.3125 -1.1875 C 4.625 -1.1875 4.914062 -1.253906 5.1875 -1.390625 C 5.46875 -1.523438 5.707031 -1.710938 5.90625 -1.953125 C 6.113281 -2.191406 6.273438 -2.472656 6.390625 -2.796875 C 6.515625 -3.117188 6.578125 -3.460938 6.578125 -3.828125 C 6.578125 -4.191406 6.515625 -4.53125 6.390625 -4.84375 C 6.273438 -5.164062 6.113281 -5.445312 5.90625 -5.6875 C 5.707031 -5.925781 5.46875 -6.113281 5.1875 -6.25 C 4.914062 -6.394531 4.625 -6.46875 4.3125 -6.46875 C 4.007812 -6.46875 3.71875 -6.394531 3.4375 -6.25 C 3.164062 -6.113281 2.925781 -5.925781 2.71875 -5.6875 C 2.519531 -5.445312 2.359375 -5.164062 2.234375 -4.84375 C 2.117188 -4.53125 2.0625 -4.191406 2.0625 -3.828125 C 2.0625 -3.460938 2.117188 -3.117188 2.234375 -2.796875 C 2.359375 -2.472656 2.519531 -2.191406 2.71875 -1.953125 C 2.925781 -1.710938 3.164062 -1.523438 3.4375 -1.390625 C 3.71875 -1.253906 4.007812 -1.1875 4.3125 -1.1875 Z M 4.3125 -1.1875 "/></g></g></g><g fill="#000000" fill-opacity="1"><g transform="translate(144.440613, 289.519582)"><g><path d="M 5.515625 -6.234375 C 5.441406 -6.265625 5.367188 -6.300781 5.296875 -6.34375 C 5.234375 -6.363281 5.15625 -6.382812 5.0625 -6.40625 C 4.976562 -6.425781 4.890625 -6.4375 4.796875 -6.4375 C 4.492188 -6.4375 4.207031 -6.382812 3.9375 -6.28125 C 3.664062 -6.175781 3.429688 -6.035156 3.234375 -5.859375 C 3.046875 -5.691406 2.894531 -5.492188 2.78125 -5.265625 C 2.675781 -5.035156 2.625 -4.796875 2.625 -4.546875 L 2.609375 0 L 1.0625 0 L 1.0625 -7.65625 L 2.28125 -7.65625 L 2.609375 -6.8125 C 2.816406 -7.125 3.09375 -7.375 3.4375 -7.5625 C 3.789062 -7.75 4.226562 -7.84375 4.75 -7.84375 C 5.09375 -7.84375 5.484375 -7.796875 5.921875 -7.703125 Z M 5.515625 -6.234375 "/></g></g></g><g fill="#000000" fill-opacity="1"><g transform="translate(151.639165, 289.519582)"><g><path d="M 2.453125 0 L 0.890625 0 L 0.890625 -7.65625 L 2.125 -7.65625 L 2.453125 -7.015625 C 2.640625 -7.234375 2.863281 -7.425781 3.125 -7.59375 C 3.394531 -7.757812 3.722656 -7.84375 4.109375 -7.84375 C 4.265625 -7.84375 4.429688 -7.820312 4.609375 -7.78125 C 4.796875 -7.75 4.988281 -7.6875 5.1875 -7.59375 C 5.382812 -7.5 5.570312 -7.375 5.75 -7.21875 C 5.9375 -7.0625 6.09375 -6.863281 6.21875 -6.625 C 6.40625 -6.957031 6.679688 -7.242188 7.046875 -7.484375 C 7.410156 -7.722656 7.800781 -7.84375 8.21875 -7.84375 C 8.5 -7.84375 8.789062 -7.796875 9.09375 -7.703125 C 9.40625 -7.617188 9.695312 -7.457031 9.96875 -7.21875 C 10.238281 -6.988281 10.457031 -6.664062 10.625 -6.25 C 10.789062 -5.832031 10.875 -5.296875 10.875 -4.640625 L 10.875 0 L 9.421875 0 L 9.421875 -4.65625 C 9.421875 -5.3125 9.285156 -5.769531 9.015625 -6.03125 C 8.742188 -6.300781 8.382812 -6.4375 7.9375 -6.4375 C 7.59375 -6.4375 7.289062 -6.289062 7.03125 -6 C 6.78125 -5.707031 6.65625 -5.253906 6.65625 -4.640625 L 6.65625 0 L 5.203125 0 L 5.203125 -4.65625 C 5.203125 -5.3125 5.066406 -5.769531 4.796875 -6.03125 C 4.523438 -6.300781 4.164062 -6.4375 3.71875 -6.4375 C 3.394531 -6.4375 3.113281 -6.3125 2.875 -6.0625 C 2.632812 -5.820312 2.492188 -5.4375 2.453125 -4.90625 Z M 2.453125 0 "/></g></g></g><g fill="#000000" fill-opacity="1"><g transform="translate(164.596339, 289.519582)"><g/></g></g><g fill="#000000" fill-opacity="1"><g transform="translate(169.923346, 289.519582)"><g><path d="M 7.15625 -8.203125 C 7.125 -8.003906 7.046875 -7.804688 6.921875 -7.609375 C 6.796875 -7.421875 6.640625 -7.234375 6.453125 -7.046875 C 6.273438 -6.859375 6.066406 -6.664062 5.828125 -6.46875 C 5.597656 -6.28125 5.367188 -6.085938 5.140625 -5.890625 C 5.347656 -5.648438 5.550781 -5.410156 5.75 -5.171875 C 5.957031 -4.941406 6.171875 -4.71875 6.390625 -4.5 L 7.578125 -3.203125 C 7.878906 -3.472656 8.171875 -3.765625 8.453125 -4.078125 C 8.734375 -4.398438 9.007812 -4.734375 9.28125 -5.078125 L 10.4375 -4.046875 C 10.132812 -3.671875 9.832031 -3.320312 9.53125 -3 C 9.238281 -2.6875 8.921875 -2.375 8.578125 -2.0625 L 10.5 0.03125 L 8.4375 0.03125 C 8.3125 -0.0820312 8.195312 -0.191406 8.09375 -0.296875 C 8 -0.410156 7.910156 -0.519531 7.828125 -0.625 L 7.40625 -1.109375 C 7.382812 -1.085938 7.363281 -1.070312 7.34375 -1.0625 C 7.332031 -1.0625 7.316406 -1.050781 7.296875 -1.03125 C 7.054688 -0.851562 6.820312 -0.679688 6.59375 -0.515625 C 6.363281 -0.359375 6.113281 -0.21875 5.84375 -0.09375 C 5.582031 0.0195312 5.289062 0.113281 4.96875 0.1875 C 4.65625 0.257812 4.296875 0.296875 3.890625 0.296875 C 3.472656 0.296875 3.066406 0.234375 2.671875 0.109375 C 2.285156 -0.015625 1.945312 -0.195312 1.65625 -0.4375 C 1.363281 -0.6875 1.125 -0.988281 0.9375 -1.34375 C 0.757812 -1.707031 0.671875 -2.125 0.671875 -2.59375 C 0.671875 -2.988281 0.726562 -3.347656 0.84375 -3.671875 C 0.96875 -4.003906 1.128906 -4.3125 1.328125 -4.59375 C 1.523438 -4.882812 1.757812 -5.148438 2.03125 -5.390625 C 2.300781 -5.640625 2.582031 -5.875 2.875 -6.09375 C 2.5625 -6.46875 2.238281 -6.832031 1.90625 -7.1875 C 1.570312 -7.550781 1.242188 -7.910156 0.921875 -8.265625 L 0.921875 -8.390625 C 0.921875 -8.835938 1.015625 -9.253906 1.203125 -9.640625 C 1.390625 -10.023438 1.632812 -10.359375 1.9375 -10.640625 C 2.238281 -10.929688 2.578125 -11.15625 2.953125 -11.3125 C 3.335938 -11.46875 3.734375 -11.546875 4.140625 -11.546875 C 4.523438 -11.546875 4.898438 -11.472656 5.265625 -11.328125 C 5.640625 -11.179688 5.96875 -10.976562 6.25 -10.71875 C 6.53125 -10.46875 6.757812 -10.171875 6.9375 -9.828125 C 7.113281 -9.484375 7.203125 -9.113281 7.203125 -8.71875 C 7.203125 -8.632812 7.195312 -8.550781 7.1875 -8.46875 C 7.175781 -8.382812 7.164062 -8.296875 7.15625 -8.203125 Z M 4.859375 -1.359375 C 5.410156 -1.585938 5.921875 -1.867188 6.390625 -2.203125 C 6.109375 -2.515625 5.828125 -2.820312 5.546875 -3.125 C 5.273438 -3.4375 5 -3.75 4.71875 -4.0625 L 3.875 -4.984375 C 3.664062 -4.835938 3.460938 -4.675781 3.265625 -4.5 C 3.078125 -4.332031 2.90625 -4.15625 2.75 -3.96875 C 2.601562 -3.78125 2.484375 -3.578125 2.390625 -3.359375 C 2.296875 -3.140625 2.25 -2.90625 2.25 -2.65625 C 2.25 -2.132812 2.398438 -1.75 2.703125 -1.5 C 3.015625 -1.257812 3.390625 -1.140625 3.828125 -1.140625 C 4.003906 -1.140625 4.179688 -1.160156 4.359375 -1.203125 C 4.546875 -1.242188 4.710938 -1.296875 4.859375 -1.359375 Z M 5.609375 -8.640625 C 5.609375 -8.816406 5.566406 -8.988281 5.484375 -9.15625 C 5.410156 -9.332031 5.304688 -9.488281 5.171875 -9.625 C 5.035156 -9.757812 4.878906 -9.863281 4.703125 -9.9375 C 4.535156 -10.019531 4.351562 -10.0625 4.15625 -10.0625 C 3.78125 -10.0625 3.441406 -9.929688 3.140625 -9.671875 C 2.847656 -9.410156 2.660156 -9.082031 2.578125 -8.6875 L 4.109375 -6.984375 C 4.265625 -7.097656 4.410156 -7.210938 4.546875 -7.328125 C 4.691406 -7.441406 4.828125 -7.550781 4.953125 -7.65625 C 4.960938 -7.675781 5 -7.707031 5.0625 -7.75 C 5.125 -7.800781 5.160156 -7.832031 5.171875 -7.84375 C 5.296875 -7.945312 5.394531 -8.046875 5.46875 -8.140625 C 5.539062 -8.234375 5.585938 -8.375 5.609375 -8.5625 Z M 5.609375 -8.640625 "/></g></g></g><g fill="#000000" fill-opacity="1"><g transform="translate(181.744795, 289.519582)"><g/></g></g><g fill="#000000" fill-opacity="1"><g transform="translate(187.071802, 289.519582)"><g><path d="M 10.25 0 L 8.15625 0 L 4.59375 -4.890625 L 2.609375 -4.890625 L 2.609375 0 L 0.921875 0 L 0.921875 -11.34375 L 5.53125 -11.34375 C 5.976562 -11.34375 6.398438 -11.253906 6.796875 -11.078125 C 7.203125 -10.910156 7.550781 -10.679688 7.84375 -10.390625 C 8.132812 -10.109375 8.363281 -9.769531 8.53125 -9.375 C 8.707031 -8.988281 8.796875 -8.570312 8.796875 -8.125 C 8.796875 -7.75 8.738281 -7.394531 8.625 -7.0625 C 8.507812 -6.738281 8.347656 -6.441406 8.140625 -6.171875 C 7.929688 -5.910156 7.679688 -5.679688 7.390625 -5.484375 C 7.097656 -5.285156 6.785156 -5.140625 6.453125 -5.046875 Z M 5.53125 -6.46875 C 5.757812 -6.46875 5.972656 -6.507812 6.171875 -6.59375 C 6.378906 -6.6875 6.550781 -6.804688 6.6875 -6.953125 C 6.832031 -7.109375 6.945312 -7.289062 7.03125 -7.5 C 7.125 -7.707031 7.171875 -7.925781 7.171875 -8.15625 C 7.171875 -8.394531 7.125 -8.613281 7.03125 -8.8125 C 6.945312 -9.019531 6.832031 -9.195312 6.6875 -9.34375 C 6.550781 -9.5 6.378906 -9.625 6.171875 -9.71875 C 5.972656 -9.8125 5.757812 -9.859375 5.53125 -9.859375 L 2.609375 -9.859375 L 2.609375 -6.453125 Z M 5.53125 -6.46875 "/></g></g></g><g fill="#000000" fill-opacity="1"><g transform="translate(198.717286, 289.519582)"><g><path d="M 8.15625 -7.65625 L 8.15625 0 L 6.84375 0 L 6.609375 -0.875 C 6.335938 -0.53125 5.992188 -0.265625 5.578125 -0.078125 C 5.160156 0.0976562 4.738281 0.1875 4.3125 0.1875 C 3.78125 0.1875 3.28125 0.0820312 2.8125 -0.125 C 2.351562 -0.332031 1.953125 -0.613281 1.609375 -0.96875 C 1.265625 -1.332031 0.988281 -1.757812 0.78125 -2.25 C 0.582031 -2.738281 0.484375 -3.265625 0.484375 -3.828125 C 0.484375 -4.378906 0.582031 -4.898438 0.78125 -5.390625 C 0.988281 -5.878906 1.265625 -6.304688 1.609375 -6.671875 C 1.953125 -7.035156 2.351562 -7.320312 2.8125 -7.53125 C 3.28125 -7.738281 3.78125 -7.84375 4.3125 -7.84375 C 4.738281 -7.84375 5.148438 -7.757812 5.546875 -7.59375 C 5.941406 -7.425781 6.296875 -7.164062 6.609375 -6.8125 L 6.84375 -7.65625 Z M 4.3125 -1.1875 C 4.625 -1.1875 4.914062 -1.253906 5.1875 -1.390625 C 5.46875 -1.523438 5.707031 -1.710938 5.90625 -1.953125 C 6.113281 -2.191406 6.273438 -2.472656 6.390625 -2.796875 C 6.515625 -3.117188 6.578125 -3.460938 6.578125 -3.828125 C 6.578125 -4.191406 6.515625 -4.53125 6.390625 -4.84375 C 6.273438 -5.164062 6.113281 -5.445312 5.90625 -5.6875 C 5.707031 -5.925781 5.46875 -6.113281 5.1875 -6.25 C 4.914062 -6.394531 4.625 -6.46875 4.3125 -6.46875 C 4.007812 -6.46875 3.71875 -6.394531 3.4375 -6.25 C 3.164062 -6.113281 2.925781 -5.925781 2.71875 -5.6875 C 2.519531 -5.445312 2.359375 -5.164062 2.234375 -4.84375 C 2.117188 -4.53125 2.0625 -4.191406 2.0625 -3.828125 C 2.0625 -3.460938 2.117188 -3.117188 2.234375 -2.796875 C 2.359375 -2.472656 2.519531 -2.191406 2.71875 -1.953125 C 2.925781 -1.710938 3.164062 -1.523438 3.4375 -1.390625 C 3.71875 -1.253906 4.007812 -1.1875 4.3125 -1.1875 Z M 4.3125 -1.1875 "/></g></g></g><g fill="#000000" fill-opacity="1"><g transform="translate(208.715164, 289.519582)"><g><path d="M 2.421875 0 L 0.859375 0 L 0.859375 -7.65625 L 2.09375 -7.65625 L 2.421875 -6.984375 C 2.671875 -7.234375 2.976562 -7.4375 3.34375 -7.59375 C 3.707031 -7.757812 4.101562 -7.84375 4.53125 -7.84375 C 4.800781 -7.84375 5.113281 -7.796875 5.46875 -7.703125 C 5.820312 -7.617188 6.148438 -7.457031 6.453125 -7.21875 C 6.753906 -6.988281 7.007812 -6.664062 7.21875 -6.25 C 7.425781 -5.832031 7.53125 -5.296875 7.53125 -4.640625 L 7.53125 0 L 6.0625 0 L 6.0625 -4.65625 C 6.0625 -4.988281 6.007812 -5.269531 5.90625 -5.5 C 5.8125 -5.726562 5.679688 -5.910156 5.515625 -6.046875 C 5.347656 -6.179688 5.160156 -6.28125 4.953125 -6.34375 C 4.742188 -6.40625 4.523438 -6.4375 4.296875 -6.4375 C 4.128906 -6.4375 3.9375 -6.398438 3.71875 -6.328125 C 3.5 -6.265625 3.289062 -6.160156 3.09375 -6.015625 C 2.90625 -5.878906 2.742188 -5.703125 2.609375 -5.484375 C 2.484375 -5.265625 2.421875 -4.992188 2.421875 -4.671875 Z M 2.421875 0 "/></g></g></g><g fill="#000000" fill-opacity="1"><g transform="translate(218.409122, 289.519582)"><g><path d="M 4.421875 0.1875 C 3.878906 0.1875 3.375 0.0820312 2.90625 -0.125 C 2.445312 -0.332031 2.046875 -0.613281 1.703125 -0.96875 C 1.359375 -1.332031 1.082031 -1.757812 0.875 -2.25 C 0.675781 -2.738281 0.578125 -3.265625 0.578125 -3.828125 C 0.578125 -4.378906 0.675781 -4.898438 0.875 -5.390625 C 1.082031 -5.878906 1.359375 -6.304688 1.703125 -6.671875 C 2.046875 -7.035156 2.445312 -7.320312 2.90625 -7.53125 C 3.375 -7.738281 3.878906 -7.84375 4.421875 -7.84375 C 5.035156 -7.84375 5.601562 -7.703125 6.125 -7.421875 C 6.644531 -7.148438 7.082031 -6.769531 7.4375 -6.28125 L 6.359375 -5.4375 C 6.140625 -5.75 5.867188 -5.992188 5.546875 -6.171875 C 5.222656 -6.347656 4.875 -6.4375 4.5 -6.4375 C 4.175781 -6.4375 3.867188 -6.367188 3.578125 -6.234375 C 3.296875 -6.097656 3.046875 -5.910156 2.828125 -5.671875 C 2.617188 -5.441406 2.453125 -5.164062 2.328125 -4.84375 C 2.203125 -4.53125 2.140625 -4.191406 2.140625 -3.828125 C 2.140625 -3.460938 2.203125 -3.117188 2.328125 -2.796875 C 2.453125 -2.472656 2.617188 -2.191406 2.828125 -1.953125 C 3.046875 -1.710938 3.296875 -1.523438 3.578125 -1.390625 C 3.867188 -1.253906 4.175781 -1.1875 4.5 -1.1875 C 4.914062 -1.1875 5.289062 -1.296875 5.625 -1.515625 C 5.96875 -1.742188 6.25 -2.046875 6.46875 -2.421875 L 7.515625 -1.484375 C 7.179688 -0.972656 6.738281 -0.566406 6.1875 -0.265625 C 5.644531 0.0351562 5.054688 0.1875 4.421875 0.1875 Z M 4.421875 0.1875 "/></g></g></g><g fill="#000000" fill-opacity="1"><g transform="translate(227.687184, 289.519582)"><g><path d="M 2.453125 0 L 0.890625 0 L 0.890625 -11.6875 L 2.453125 -11.6875 L 2.453125 -6.953125 C 2.734375 -7.273438 3.03125 -7.503906 3.34375 -7.640625 C 3.664062 -7.773438 4.035156 -7.84375 4.453125 -7.84375 C 4.984375 -7.84375 5.457031 -7.738281 5.875 -7.53125 C 6.300781 -7.320312 6.660156 -7.035156 6.953125 -6.671875 C 7.253906 -6.304688 7.484375 -5.878906 7.640625 -5.390625 C 7.796875 -4.898438 7.875 -4.378906 7.875 -3.828125 L 7.875 0 L 6.296875 0 L 6.296875 -3.828125 C 6.296875 -4.191406 6.242188 -4.53125 6.140625 -4.84375 C 6.046875 -5.164062 5.910156 -5.441406 5.734375 -5.671875 C 5.554688 -5.910156 5.351562 -6.097656 5.125 -6.234375 C 4.894531 -6.367188 4.648438 -6.4375 4.390625 -6.4375 C 4.160156 -6.4375 3.929688 -6.390625 3.703125 -6.296875 C 3.484375 -6.203125 3.28125 -6.050781 3.09375 -5.84375 C 2.90625 -5.644531 2.75 -5.378906 2.625 -5.046875 C 2.507812 -4.722656 2.453125 -4.328125 2.453125 -3.859375 Z M 2.453125 0 "/></g></g></g></svg>